{"asset":{"version":"2.0","generator":"Blockbench 4.11.2 glTF exporter"},"scenes":[{"nodes":[18],"name":"blockbench_export"}],"scene":0,"nodes":[{"translation":[0,-1,0],"name":"attacking","mesh":0},{"name":"head_hostile","children":[0]},{"translation":[0,-1,0],"name":"neutral","mesh":1},{"name":"head_neutral","children":[2]},{"name":"big_leaf","mesh":2},{"rotation":[0.09904616934654256,-0.2391176778757368,-0.3696436972714809,0.8923990864700395],"translation":[0,1,0],"name":"leaf_big","children":[4]},{"name":"small_leaf","mesh":3},{"rotation":[-0.04995028509177987,-0.12059061985776201,0.37940971220197156,0.915975513705682],"translation":[0,1,0],"name":"leaf_small","children":[6]},{"translation":[0,1,0],"name":"head","children":[1,3,5,7]},{"translation":[0.3125,-0.0625,-0.1875],"name":"vines_left","mesh":4},{"rotation":[0,0,0.25881904510252074,0.9659258262890683],"translation":[-0.3125,0.0625,0.1875],"name":"left_vines","children":[9]},{"translation":[-0.3125,-0.5625,0.1875],"name":"vines_right","mesh":5},{"rotation":[0,0,-0.3826834323650898,0.9238795325112867],"translation":[0.3125,0.5625,-0.1875],"name":"right_vines","children":[11]},{"name":"stalk","mesh":6},{"name":"vines","mesh":7},{"name":"stem","children":[10,12,13,14]},{"name":"root","children":[8,15]},{"rotation":[0,0.9238795325112867,0,0.38268343236508984],"name":"bone","children":[16]},{"children":[17]}],"bufferViews":[{"buffer":0,"byteOffset":0,"byteLength":288,"target":34962,"byteStride":12},{"buffer":0,"byteOffset":288,"byteLength":288,"target":34962,"byteStride":12},{"buffer":0,"byteOffset":576,"byteLength":192,"target":34962,"byteStride":8},{"buffer":0,"byteOffset":768,"byteLength":72,"target":34963},{"buffer":0,"byteOffset":840,"byteLength":288,"target":34962,"byteStride":12},{"buffer":0,"byteOffset":1128,"byteLength":288,"target":34962,"byteStride":12},{"buffer":0,"byteOffset":1416,"byteLength":192,"target":34962,"byteStride":8},{"buffer":0,"byteOffset":1608,"byteLength":72,"target":34963},{"buffer":0,"byteOffset":1680,"byteLength":288,"target":34962,"byteStride":12},{"buffer":0,"byteOffset":1968,"byteLength":288,"target":34962,"byteStride":12},{"buffer":0,"byteOffset":2256,"byteLength":192,"target":34962,"byteStride":8},{"buffer":0,"byteOffset":2448,"byteLength":72,"target":34963},{"buffer":0,"byteOffset":2520,"byteLength":288,"target":34962,"byteStride":12},{"buffer":0,"byteOffset":2808,"byteLength":288,"target":34962,"byteStride":12},{"buffer":0,"byteOffset":3096,"byteLength":192,"target":34962,"byteStride":8},{"buffer":0,"byteOffset":3288,"byteLength":72,"target":34963},{"buffer":0,"byteOffset":3360,"byteLength":288,"target":34962,"byteStride":12},{"buffer":0,"byteOffset":3648,"byteLength":288,"target":34962,"byteStride":12},{"buffer":0,"byteOffset":3936,"byteLength":192,"target":34962,"byteStride":8},{"buffer":0,"byteOffset":4128,"byteLength":72,"target":34963},{"buffer":0,"byteOffset":4200,"byteLength":288,"target":34962,"byteStride":12},{"buffer":0,"byteOffset":4488,"byteLength":288,"target":34962,"byteStride":12},{"buffer":0,"byteOffset":4776,"byteLength":192,"target":34962,"byteStride":8},{"buffer":0,"byteOffset":4968,"byteLength":72,"target":34963},{"buffer":0,"byteOffset":5040,"byteLength":288,"target":34962,"byteStride":12},{"buffer":0,"byteOffset":5328,"byteLength":288,"target":34962,"byteStride":12},{"buffer":0,"byteOffset":5616,"byteLength":192,"target":34962,"byteStride":8},{"buffer":0,"byteOffset":5808,"byteLength":72,"target":34963},{"buffer":0,"byteOffset":5880,"byteLength":288,"target":34962,"byteStride":12},{"buffer":0,"byteOffset":6168,"byteLength":288,"target":34962,"byteStride":12},{"buffer":0,"byteOffset":6456,"byteLength":192,"target":34962,"byteStride":8},{"buffer":0,"byteOffset":6648,"byteLength":72,"target":34963},{"buffer":0,"byteOffset":6720,"byteLength":20},{"buffer":0,"byteOffset":6740,"byteLength":80},{"buffer":0,"byteOffset":6820,"byteLength":20},{"buffer":0,"byteOffset":6840,"byteLength":80},{"buffer":0,"byteOffset":6920,"byteLength":36},{"buffer":0,"byteOffset":6956,"byteLength":144},{"buffer":0,"byteOffset":7100,"byteLength":8},{"buffer":0,"byteOffset":7108,"byteLength":24},{"buffer":0,"byteOffset":7132,"byteLength":16},{"buffer":0,"byteOffset":7148,"byteLength":64},{"buffer":0,"byteOffset":7212,"byteLength":20},{"buffer":0,"byteOffset":7232,"byteLength":80},{"buffer":0,"byteOffset":7312,"byteLength":12},{"buffer":0,"byteOffset":7324,"byteLength":48},{"buffer":0,"byteOffset":7372,"byteLength":12},{"buffer":0,"byteOffset":7384,"byteLength":48},{"buffer":0,"byteOffset":7432,"byteLength":36},{"buffer":0,"byteOffset":7468,"byteLength":144},{"buffer":0,"byteOffset":7612,"byteLength":8},{"buffer":0,"byteOffset":7620,"byteLength":24},{"buffer":0,"byteOffset":7644,"byteLength":16},{"buffer":0,"byteOffset":7660,"byteLength":64},{"buffer":0,"byteOffset":7724,"byteLength":20},{"buffer":0,"byteOffset":7744,"byteLength":80},{"buffer":0,"byteOffset":7824,"byteLength":28},{"buffer":0,"byteOffset":7852,"byteLength":112},{"buffer":0,"byteOffset":7964,"byteLength":40},{"buffer":0,"byteOffset":8004,"byteLength":160},{"buffer":0,"byteOffset":8164,"byteLength":28},{"buffer":0,"byteOffset":8192,"byteLength":112},{"buffer":0,"byteOffset":8304,"byteLength":24},{"buffer":0,"byteOffset":8328,"byteLength":96},{"buffer":0,"byteOffset":8424,"byteLength":24},{"buffer":0,"byteOffset":8448,"byteLength":96},{"buffer":0,"byteOffset":8544,"byteLength":24},{"buffer":0,"byteOffset":8568,"byteLength":96},{"buffer":0,"byteOffset":8664,"byteLength":20},{"buffer":0,"byteOffset":8684,"byteLength":80},{"buffer":0,"byteOffset":8764,"byteLength":36},{"buffer":0,"byteOffset":8800,"byteLength":144},{"buffer":0,"byteOffset":8944,"byteLength":28},{"buffer":0,"byteOffset":8972,"byteLength":112},{"buffer":0,"byteOffset":9084,"byteLength":28},{"buffer":0,"byteOffset":9112,"byteLength":112},{"buffer":0,"byteOffset":9224,"byteLength":12},{"buffer":0,"byteOffset":9236,"byteLength":48},{"buffer":0,"byteOffset":9284,"byteLength":12},{"buffer":0,"byteOffset":9296,"byteLength":48},{"buffer":0,"byteOffset":9344,"byteLength":4},{"buffer":0,"byteOffset":9348,"byteLength":16},{"buffer":0,"byteOffset":9364,"byteLength":4},{"buffer":0,"byteOffset":9368,"byteLength":16},{"buffer":0,"byteOffset":9384,"byteLength":4},{"buffer":0,"byteOffset":9388,"byteLength":16},{"buffer":0,"byteOffset":9404,"byteLength":4},{"buffer":0,"byteOffset":9408,"byteLength":12},{"buffer":0,"byteOffset":9420,"byteLength":12},{"buffer":0,"byteOffset":9432,"byteLength":48},{"buffer":0,"byteOffset":9480,"byteLength":12},{"buffer":0,"byteOffset":9492,"byteLength":48}],"buffers":[{"byteLength":9540,"uri":"data:application/octet-stream;base64,"}],"accessors":[{"bufferView":0,"componentType":5126,"count":24,"max":[0.5006250143051147,2.000624895095825,0.5006250143051147],"min":[-0.5006250143051147,0.9993749856948853,-0.5006250143051147],"type":"VEC3"},{"bufferView":1,"componentType":5126,"count":24,"max":[1,1,1],"min":[-1,-1,-1],"type":"VEC3"},{"bufferView":2,"componentType":5126,"count":24,"max":[0.9998779296875,0.499755859375],"min":[0.5001220703125,0.000244140625],"type":"VEC2"},{"bufferView":3,"componentType":5123,"count":36,"max":[23],"min":[0],"type":"SCALAR"},{"bufferView":4,"componentType":5126,"count":24,"max":[0.5006250143051147,2.000624895095825,0.5006250143051147],"min":[-0.5006250143051147,0.9993749856948853,-0.5006250143051147],"type":"VEC3"},{"bufferView":5,"componentType":5126,"count":24,"max":[1,1,1],"min":[-1,-1,-1],"type":"VEC3"},{"bufferView":6,"componentType":5126,"count":24,"max":[0.4998779296875,0.499755859375],"min":[0.0001220703125,0.000244140625],"type":"VEC2"},{"bufferView":7,"componentType":5123,"count":36,"max":[23],"min":[0],"type":"SCALAR"},{"bufferView":8,"componentType":5126,"count":24,"max":[0.0000625000029685907,1,0.5],"min":[0,0,-0.5],"type":"VEC3"},{"bufferView":9,"componentType":5126,"count":24,"max":[1,1,1],"min":[-1,-1,-1],"type":"VEC3"},{"bufferView":10,"componentType":5126,"count":24,"max":[0.6251220703125,0.249755859375],"min":[0.3751220703125,-0.249755859375],"type":"VEC2"},{"bufferView":11,"componentType":5123,"count":36,"max":[23],"min":[0],"type":"SCALAR"},{"bufferView":12,"componentType":5126,"count":24,"max":[0.0000625000029685907,0.625,0.25],"min":[0,0,-0.25],"type":"VEC3"},{"bufferView":13,"componentType":5126,"count":24,"max":[1,1,1],"min":[-1,-1,-1],"type":"VEC3"},{"bufferView":14,"componentType":5126,"count":24,"max":[0.1251220703125,0.249755859375],"min":[0.0001220703125,-0.031005859375],"type":"VEC2"},{"bufferView":15,"componentType":5123,"count":36,"max":[23],"min":[0],"type":"SCALAR"},{"bufferView":16,"componentType":5126,"count":24,"max":[-0.312437504529953,0.8125,0.3125],"min":[-0.3125,0.0625,0.0625],"type":"VEC3"},{"bufferView":17,"componentType":5126,"count":24,"max":[1,1,1],"min":[-1,-1,-1],"type":"VEC3"},{"bufferView":18,"componentType":5126,"count":24,"max":[0.2501220703125,0.749755859375],"min":[0.1876220703125,0.500244140625],"type":"VEC2"},{"bufferView":19,"componentType":5123,"count":36,"max":[23],"min":[0],"type":"SCALAR"},{"bufferView":20,"componentType":5126,"count":24,"max":[0.312562495470047,1.0625,-0.0625],"min":[0.3125,0.5625,-0.3125],"type":"VEC3"},{"bufferView":21,"componentType":5126,"count":24,"max":[1,1,1],"min":[-1,-1,-1],"type":"VEC3"},{"bufferView":22,"componentType":5126,"count":24,"max":[0.0626220703125,0.749755859375],"min":[0.0001220703125,0.562744140625],"type":"VEC2"},{"bufferView":23,"componentType":5123,"count":36,"max":[23],"min":[0],"type":"SCALAR"},{"bufferView":24,"componentType":5126,"count":24,"max":[0.25,1,0.25],"min":[-0.25,0,-0.25],"type":"VEC3"},{"bufferView":25,"componentType":5126,"count":24,"max":[1,1,1],"min":[-1,-1,-1],"type":"VEC3"},{"bufferView":26,"componentType":5126,"count":24,"max":[0.2498779296875,0.999755859375],"min":[0.0001220703125,0.625244140625],"type":"VEC2"},{"bufferView":27,"componentType":5123,"count":36,"max":[23],"min":[0],"type":"SCALAR"},{"bufferView":28,"componentType":5126,"count":24,"max":[0.3125,1,0.3125],"min":[-0.3125,0,-0.3125],"type":"VEC3"},{"bufferView":29,"componentType":5126,"count":24,"max":[1,1,1],"min":[-1,-1,-1],"type":"VEC3"},{"bufferView":30,"componentType":5126,"count":24,"max":[0.5623779296875,0.999755859375],"min":[0.2501220703125,0.593994140625],"type":"VEC2"},{"bufferView":31,"componentType":5123,"count":36,"max":[23],"min":[0],"type":"SCALAR"},{"bufferView":32,"componentType":5126,"count":5,"max":[0.5833333134651184],"min":[0.1666666716337204],"type":"SCALAR"},{"bufferView":33,"componentType":5126,"count":5,"max":[0,0,0.5,1],"min":[0,0,0,0.8660253882408142],"type":"VEC4"},{"bufferView":34,"componentType":5126,"count":5,"max":[0.5833333134651184],"min":[0.25],"type":"SCALAR"},{"bufferView":35,"componentType":5126,"count":5,"max":[0,0,0,1],"min":[0,0,-0.6087614297866821,0.7933533191680908],"type":"VEC4"},{"bufferView":36,"componentType":5126,"count":9,"max":[0.5],"min":[0],"type":"SCALAR"},{"bufferView":37,"componentType":5126,"count":9,"max":[0.04352599382400513,0.01137610711157322,0.06534087657928467,1],"min":[-0.08641011267900467,0,-0.25857269763946533,0.9650064706802368],"type":"VEC4"},{"bufferView":38,"componentType":5126,"count":2,"max":[0.25],"min":[0],"type":"SCALAR"},{"bufferView":39,"componentType":5126,"count":2,"max":[0,1,0],"min":[0,0,0],"type":"VEC3"},{"bufferView":40,"componentType":5126,"count":4,"max":[0.3333333432674408],"min":[0],"type":"SCALAR"},{"bufferView":41,"componentType":5126,"count":4,"max":[0.09904617071151733,-0.09266316890716553,-0.3696436882019043,0.8923990726470947],"min":[-0.08702506124973297,-0.23911768198013306,-0.5321447849273682,0.832483172416687],"type":"VEC4"},{"bufferView":42,"componentType":5126,"count":5,"max":[0.5833333134651184],"min":[0],"type":"SCALAR"},{"bufferView":43,"componentType":5126,"count":5,"max":[-0.027460230514407158,-0.08121602982282639,0.6517472267150879,0.9219256043434143],"min":[-0.05284751206636429,-0.12059061974287033,0.37222856283187866,0.7523301243782043],"type":"VEC4"},{"bufferView":44,"componentType":5126,"count":3,"max":[0.4166666567325592],"min":[0],"type":"SCALAR"},{"bufferView":45,"componentType":5126,"count":3,"max":[0,0,0.258819043636322,1],"min":[0,0,0,0.9659258127212524],"type":"VEC4"},{"bufferView":46,"componentType":5126,"count":3,"max":[0.3333333432674408],"min":[0],"type":"SCALAR"},{"bufferView":47,"componentType":5126,"count":3,"max":[0,0,0,1],"min":[0,0,-0.3826834261417389,0.9238795042037964],"type":"VEC4"},{"bufferView":48,"componentType":5126,"count":9,"max":[0.5833333134651184],"min":[0.0833333358168602],"type":"SCALAR"},{"bufferView":49,"componentType":5126,"count":9,"max":[0.04352599382400513,0.01137610711157322,0.06534087657928467,1],"min":[-0.08641011267900467,0,-0.25857269763946533,0.9650064706802368],"type":"VEC4"},{"bufferView":50,"componentType":5126,"count":2,"max":[0.5833333134651184],"min":[0.3333333432674408],"type":"SCALAR"},{"bufferView":51,"componentType":5126,"count":2,"max":[0,1,0],"min":[0,0,0],"type":"VEC3"},{"bufferView":52,"componentType":5126,"count":4,"max":[0.5833333134651184],"min":[0.25],"type":"SCALAR"},{"bufferView":53,"componentType":5126,"count":4,"max":[0.09904617071151733,-0.09266316890716553,-0.3696436882019043,0.8923990726470947],"min":[-0.08702506124973297,-0.23911768198013306,-0.5321447849273682,0.832483172416687],"type":"VEC4"},{"bufferView":54,"componentType":5126,"count":5,"max":[0.5833333134651184],"min":[0],"type":"SCALAR"},{"bufferView":55,"componentType":5126,"count":5,"max":[-0.027460230514407158,-0.08121602982282639,0.6517472267150879,0.9219256043434143],"min":[-0.05284751206636429,-0.12059061974287033,0.37222856283187866,0.7523301243782043],"type":"VEC4"},{"bufferView":56,"componentType":5126,"count":7,"max":[0.5],"min":[0],"type":"SCALAR"},{"bufferView":57,"componentType":5126,"count":7,"max":[0.06540312618017197,0,0,1],"min":[-0.02181488461792469,0,0,0.9978589415550232],"type":"VEC4"},{"bufferView":58,"componentType":5126,"count":10,"max":[0.5],"min":[0],"type":"SCALAR"},{"bufferView":59,"componentType":5126,"count":10,"max":[0.13052618503570557,0,0,1],"min":[-0.15212339162826538,0,0,0.9883615374565125],"type":"VEC4"},{"bufferView":60,"componentType":5126,"count":7,"max":[0.5],"min":[0],"type":"SCALAR"},{"bufferView":61,"componentType":5126,"count":7,"max":[0.25905096530914307,-0.030994024127721786,-0.27301594614982605,0.9217202663421631],"min":[-0.1058310940861702,-0.23911768198013306,-0.3785213828086853,0.8923990726470947],"type":"VEC4"},{"bufferView":62,"componentType":5126,"count":6,"max":[0.5],"min":[0],"type":"SCALAR"},{"bufferView":63,"componentType":5126,"count":6,"max":[0.21873527765274048,0.06366676092147827,0.5146294832229614,0.9159755110740662],"min":[-0.3062722384929657,-0.22686703503131866,0.37940970063209534,0.7798911333084106],"type":"VEC4"},{"bufferView":64,"componentType":5126,"count":6,"max":[0.5],"min":[0],"type":"SCALAR"},{"bufferView":65,"componentType":5126,"count":6,"max":[0.1730472296476364,0.09008268266916275,0.4279443323612213,0.9798517823219299],"min":[-0.1135421022772789,-0.07211393117904663,0.04278125241398811,0.9007163047790527],"type":"VEC4"},{"bufferView":66,"componentType":5126,"count":6,"max":[0.5],"min":[0],"type":"SCALAR"},{"bufferView":67,"componentType":5126,"count":6,"max":[0.2740271985530853,0.0769430473446846,-0.259038507938385,0.9238795042037964],"min":[-0.2688077688217163,-0.1135811060667038,-0.5171190500259399,0.8089561462402344],"type":"VEC4"},{"bufferView":68,"componentType":5126,"count":5,"max":[6],"min":[0],"type":"SCALAR"},{"bufferView":69,"componentType":5126,"count":5,"max":[0,0,0.02181488461792469,1],"min":[0,0,-0.02181488461792469,0.9997619986534119],"type":"VEC4"},{"bufferView":70,"componentType":5126,"count":9,"max":[6],"min":[0],"type":"SCALAR"},{"bufferView":71,"componentType":5126,"count":9,"max":[0,0,0.10886687785387039,1],"min":[0,0,-0.10886687785387039,0.9940563440322876],"type":"VEC4"},{"bufferView":72,"componentType":5126,"count":7,"max":[6],"min":[0],"type":"SCALAR"},{"bufferView":73,"componentType":5126,"count":7,"max":[0.1195097491145134,-0.22957532107830048,-0.29045939445495605,0.9212198257446289],"min":[0.072425477206707,-0.24847929179668427,-0.4645993709564209,0.8468530178070068],"type":"VEC4"},{"bufferView":74,"componentType":5126,"count":7,"max":[6],"min":[0],"type":"SCALAR"},{"bufferView":75,"componentType":5126,"count":7,"max":[-0.02825108729302883,-0.11443594098091125,0.5327031016349792,0.9518364071846008],"min":[-0.06278172135353088,-0.12743234634399414,0.2774352431297302,0.8361759781837463],"type":"VEC4"},{"bufferView":76,"componentType":5126,"count":3,"max":[6],"min":[0],"type":"SCALAR"},{"bufferView":77,"componentType":5126,"count":3,"max":[0,0,0.3826834261417389,0.9659258127212524],"min":[0,0,0.258819043636322,0.9238795042037964],"type":"VEC4"},{"bufferView":78,"componentType":5126,"count":3,"max":[6],"min":[0],"type":"SCALAR"},{"bufferView":79,"componentType":5126,"count":3,"max":[0,0,-0.3826834261417389,0.9238795042037964],"min":[0,0,-0.5,0.8660253882408142],"type":"VEC4"},{"bufferView":80,"componentType":5126,"count":1,"max":[0],"min":[0],"type":"SCALAR"},{"bufferView":81,"componentType":5126,"count":1,"max":[0,0,0,1],"min":[0,0,0,1],"type":"VEC4"},{"bufferView":82,"componentType":5126,"count":1,"max":[0],"min":[0],"type":"SCALAR"},{"bufferView":83,"componentType":5126,"count":1,"max":[0,0,0,1],"min":[0,0,0,1],"type":"VEC4"},{"bufferView":84,"componentType":5126,"count":1,"max":[0],"min":[0],"type":"SCALAR"},{"bufferView":85,"componentType":5126,"count":1,"max":[0,0,0,1],"min":[0,0,0,1],"type":"VEC4"},{"bufferView":86,"componentType":5126,"count":1,"max":[0],"min":[0],"type":"SCALAR"},{"bufferView":87,"componentType":5126,"count":1,"max":[0,0,0],"min":[0,0,0],"type":"VEC3"},{"bufferView":88,"componentType":5126,"count":3,"max":[3],"min":[0],"type":"SCALAR"},{"bufferView":89,"componentType":5126,"count":3,"max":[0.09904617071151733,-0.23911768198013306,-0.3696436882019043,0.8923990726470947],"min":[0.08852173388004303,-0.24321042001247406,-0.40821778774261475,0.8754261136054993],"type":"VEC4"},{"bufferView":90,"componentType":5126,"count":3,"max":[3],"min":[0],"type":"SCALAR"},{"bufferView":91,"componentType":5126,"count":3,"max":[-0.04730772599577904,-0.12059061974287033,0.39930132031440735,0.9159755110740662],"min":[-0.049950286746025085,-0.12165158241987228,0.37940970063209534,0.907480776309967],"type":"VEC4"}],"materials":[{"pbrMetallicRoughness":{"metallicFactor":0,"roughnessFactor":1,"baseColorTexture":{"index":0}},"alphaMode":"MASK","alphaCutoff":0.05,"doubleSided":true}],"textures":[{"sampler":0,"source":0,"name":"jack_o_lantern_trap.png"}],"samplers":[{"magFilter":9728,"minFilter":9728,"wrapS":33071,"wrapT":33071}],"images":[{"mimeType":"image/png","uri":"data:image/png;base64,"}],"meshes":[{"primitives":[{"mode":4,"attributes":{"POSITION":0,"NORMAL":1,"TEXCOORD_0":2},"indices":3,"material":0}]},{"primitives":[{"mode":4,"attributes":{"POSITION":4,"NORMAL":5,"TEXCOORD_0":6},"indices":7,"material":0}]},{"primitives":[{"mode":4,"attributes":{"POSITION":8,"NORMAL":9,"TEXCOORD_0":10},"indices":11,"material":0}]},{"primitives":[{"mode":4,"attributes":{"POSITION":12,"NORMAL":13,"TEXCOORD_0":14},"indices":15,"material":0}]},{"primitives":[{"mode":4,"attributes":{"POSITION":16,"NORMAL":17,"TEXCOORD_0":18},"indices":19,"material":0}]},{"primitives":[{"mode":4,"attributes":{"POSITION":20,"NORMAL":21,"TEXCOORD_0":22},"indices":23,"material":0}]},{"primitives":[{"mode":4,"attributes":{"POSITION":24,"NORMAL":25,"TEXCOORD_0":26},"indices":27,"material":0}]},{"primitives":[{"mode":4,"attributes":{"POSITION":28,"NORMAL":29,"TEXCOORD_0":30},"indices":31,"material":0}]}],"animations":[{"name":"unfurl","samplers":[{"input":32,"output":33,"interpolation":"LINEAR"},{"input":34,"output":35,"interpolation":"LINEAR"},{"input":36,"output":37,"interpolation":"LINEAR"},{"input":38,"output":39,"interpolation":"LINEAR"},{"input":40,"output":41,"interpolation":"LINEAR"},{"input":42,"output":43,"interpolation":"LINEAR"}],"channels":[{"sampler":0,"target":{"node":10,"path":"rotation"}},{"sampler":1,"target":{"node":12,"path":"rotation"}},{"sampler":2,"target":{"node":8,"path":"rotation"}},{"sampler":3,"target":{"node":8,"path":"translation"}},{"sampler":4,"target":{"node":5,"path":"rotation"}},{"sampler":5,"target":{"node":7,"path":"rotation"}}]},{"name":"collapse","samplers":[{"input":44,"output":45,"interpolation":"LINEAR"},{"input":46,"output":47,"interpolation":"LINEAR"},{"input":48,"output":49,"interpolation":"LINEAR"},{"input":50,"output":51,"interpolation":"LINEAR"},{"input":52,"output":53,"interpolation":"LINEAR"},{"input":54,"output":55,"interpolation":"LINEAR"}],"channels":[{"sampler":0,"target":{"node":10,"path":"rotation"}},{"sampler":1,"target":{"node":12,"path":"rotation"}},{"sampler":2,"target":{"node":8,"path":"rotation"}},{"sampler":3,"target":{"node":8,"path":"translation"}},{"sampler":4,"target":{"node":5,"path":"rotation"}},{"sampler":5,"target":{"node":7,"path":"rotation"}}]},{"name":"shoot","samplers":[{"input":56,"output":57,"interpolation":"LINEAR"},{"input":58,"output":59,"interpolation":"LINEAR"},{"input":60,"output":61,"interpolation":"LINEAR"},{"input":62,"output":63,"interpolation":"LINEAR"},{"input":64,"output":65,"interpolation":"LINEAR"},{"input":66,"output":67,"interpolation":"LINEAR"}],"channels":[{"sampler":0,"target":{"node":16,"path":"rotation"}},{"sampler":1,"target":{"node":8,"path":"rotation"}},{"sampler":2,"target":{"node":5,"path":"rotation"}},{"sampler":3,"target":{"node":7,"path":"rotation"}},{"sampler":4,"target":{"node":10,"path":"rotation"}},{"sampler":5,"target":{"node":12,"path":"rotation"}}]},{"name":"sway","samplers":[{"input":68,"output":69,"interpolation":"LINEAR"},{"input":70,"output":71,"interpolation":"LINEAR"},{"input":72,"output":73,"interpolation":"LINEAR"},{"input":74,"output":75,"interpolation":"LINEAR"},{"input":76,"output":77,"interpolation":"LINEAR"},{"input":78,"output":79,"interpolation":"LINEAR"}],"channels":[{"sampler":0,"target":{"node":16,"path":"rotation"}},{"sampler":1,"target":{"node":8,"path":"rotation"}},{"sampler":2,"target":{"node":5,"path":"rotation"}},{"sampler":3,"target":{"node":7,"path":"rotation"}},{"sampler":4,"target":{"node":10,"path":"rotation"}},{"sampler":5,"target":{"node":12,"path":"rotation"}}]},{"name":"idle","samplers":[{"input":80,"output":81,"interpolation":"LINEAR"},{"input":82,"output":83,"interpolation":"LINEAR"},{"input":84,"output":85,"interpolation":"LINEAR"},{"input":86,"output":87,"interpolation":"LINEAR"},{"input":88,"output":89,"interpolation":"LINEAR"},{"input":90,"output":91,"interpolation":"LINEAR"}],"channels":[{"sampler":0,"target":{"node":10,"path":"rotation"}},{"sampler":1,"target":{"node":12,"path":"rotation"}},{"sampler":2,"target":{"node":8,"path":"rotation"}},{"sampler":3,"target":{"node":8,"path":"translation"}},{"sampler":4,"target":{"node":5,"path":"rotation"}},{"sampler":5,"target":{"node":7,"path":"rotation"}}]}]}