<?xml version="1.0" encoding="UTF-8" standalone="no"?>

<svg
   width="59.807384mm"
   height="34.755943mm"
   viewBox="0 0 59.807386 34.755943"
   version="1.1"
   id="svg5"
   xml:space="preserve"
   xmlns:xlink="http://www.w3.org/1999/xlink"
   xmlns="http://www.w3.org/2000/svg"
   xmlns:svg="http://www.w3.org/2000/svg"><defs
     id="defs2"><linearGradient
       id="linearGradient41415"><stop
         style="stop-color:#4bb064;stop-opacity:1;"
         offset="0"
         id="stop41411" /><stop
         style="stop-color:#90ca9e;stop-opacity:1;"
         offset="0.27083334"
         id="stop41419" /><stop
         style="stop-color:#90ca9e;stop-opacity:0;"
         offset="1"
         id="stop41413" /></linearGradient><linearGradient
       id="linearGradient40562"><stop
         style="stop-color:#85ac8c;stop-opacity:1;"
         offset="0"
         id="stop40558" /><stop
         style="stop-color:#6ec57e;stop-opacity:1;"
         offset="1"
         id="stop40560" /></linearGradient><linearGradient
       id="linearGradient40080"><stop
         style="stop-color:#41ad59;stop-opacity:1;"
         offset="0.15555555"
         id="stop40076" /><stop
         style="stop-color:#89cb95;stop-opacity:1;"
         offset="0.43333331"
         id="stop41324" /><stop
         style="stop-color:#82cc8c;stop-opacity:1;"
         offset="1"
         id="stop40078" /></linearGradient><linearGradient
       id="linearGradient38160"><stop
         style="stop-color:#409462;stop-opacity:1;"
         offset="0.11666667"
         id="stop38156" /><stop
         style="stop-color:#83b785;stop-opacity:1;"
         offset="1"
         id="stop38158" /></linearGradient><linearGradient
       id="linearGradient33156"><stop
         style="stop-color:#0e2010;stop-opacity:1;"
         offset="0"
         id="stop33150" /><stop
         style="stop-color:#050208;stop-opacity:1;"
         offset="0.40902776"
         id="stop33152" /><stop
         style="stop-color:#0c090e;stop-opacity:1;"
         offset="0.75999999"
         id="stop33158" /><stop
         style="stop-color:#001406;stop-opacity:1;"
         offset="1"
         id="stop33154" /></linearGradient><linearGradient
       id="linearGradient28572"><stop
         style="stop-color:#4f9765;stop-opacity:1;"
         offset="0"
         id="stop28562" /><stop
         style="stop-color:#449a5f;stop-opacity:1;"
         offset="0.125"
         id="stop28574" /><stop
         style="stop-color:#229a4e;stop-opacity:1;"
         offset="0.25"
         id="stop28564" /><stop
         style="stop-color:#44a560;stop-opacity:1;"
         offset="0.5"
         id="stop28566" /><stop
         style="stop-color:#42a95f;stop-opacity:1;"
         offset="0.75"
         id="stop28568" /><stop
         style="stop-color:#44ac66;stop-opacity:1;"
         offset="1"
         id="stop28570" /></linearGradient><linearGradient
       id="linearGradient25399"><stop
         style="stop-color:#7cbc95;stop-opacity:0.36538461;"
         offset="0"
         id="stop25395" /><stop
         style="stop-color:#b6d2bb;stop-opacity:0.64903849;"
         offset="1"
         id="stop25397" /></linearGradient><linearGradient
       id="linearGradient25048"><stop
         style="stop-color:#3b9261;stop-opacity:1;"
         offset="0.07777778"
         id="stop25038" /><stop
         style="stop-color:#229a4e;stop-opacity:1;"
         offset="0.25"
         id="stop25040" /><stop
         style="stop-color:#44a560;stop-opacity:1;"
         offset="0.5"
         id="stop25042" /><stop
         style="stop-color:#42a95f;stop-opacity:1;"
         offset="0.75"
         id="stop25044" /><stop
         style="stop-color:#44ac66;stop-opacity:1;"
         offset="1"
         id="stop25046" /></linearGradient><linearGradient
       id="linearGradient21707"><stop
         style="stop-color:#3b9261;stop-opacity:1;"
         offset="0"
         id="stop21705" /><stop
         style="stop-color:#229a4e;stop-opacity:1;"
         offset="0.25"
         id="stop23164" /><stop
         style="stop-color:#44a560;stop-opacity:1;"
         offset="0.5"
         id="stop22610" /><stop
         style="stop-color:#42a95f;stop-opacity:1;"
         offset="0.75"
         id="stop23718" /><stop
         style="stop-color:#44ac66;stop-opacity:1;"
         offset="1"
         id="stop21703" /></linearGradient><linearGradient
       id="linearGradient19555"><stop
         style="stop-color:#51aa63;stop-opacity:1;"
         offset="0"
         id="stop19549" /><stop
         style="stop-color:#44aa59;stop-opacity:1;"
         offset="0.28749999"
         id="stop19557" /><stop
         style="stop-color:#4daf60;stop-opacity:1;"
         offset="0.7638889"
         id="stop19551" /><stop
         style="stop-color:#61a76a;stop-opacity:1;"
         offset="0.8458333"
         id="stop34205" /><stop
         style="stop-color:#7fa186;stop-opacity:1;"
         offset="1"
         id="stop19553" /></linearGradient><linearGradient
       id="linearGradient18066"><stop
         style="stop-color:#a7d4aa;stop-opacity:1;"
         offset="0"
         id="stop18064" /><stop
         style="stop-color:#9acfa1;stop-opacity:1;"
         offset="0.52638888"
         id="stop18693" /><stop
         style="stop-color:#89c98f;stop-opacity:1;"
         offset="1"
         id="stop18062" /></linearGradient><linearGradient
       id="linearGradient15579"><stop
         style="stop-color:#4faa63;stop-opacity:1;"
         offset="0"
         id="stop15577" /><stop
         style="stop-color:#4daf60;stop-opacity:1;"
         offset="0.7638889"
         id="stop15930" /><stop
         style="stop-color:#7fa186;stop-opacity:1;"
         offset="1"
         id="stop15575" /></linearGradient><linearGradient
       id="linearGradient14045"><stop
         style="stop-color:#0e2010;stop-opacity:1;"
         offset="0"
         id="stop14043" /><stop
         style="stop-color:#050208;stop-opacity:1;"
         offset="0.40902776"
         id="stop30950" /><stop
         style="stop-color:#09130b;stop-opacity:1;"
         offset="0.81805551"
         id="stop14883" /></linearGradient><linearGradient
       id="linearGradient13054"><stop
         style="stop-color:#010001;stop-opacity:1;"
         offset="0"
         id="stop13050" /><stop
         style="stop-color:#010203;stop-opacity:1;"
         offset="0.5"
         id="stop13819" /><stop
         style="stop-color:#001000;stop-opacity:1;"
         offset="1"
         id="stop13052" /></linearGradient><radialGradient
       xlink:href="#linearGradient13054"
       id="radialGradient13058"
       cx="177.22487"
       cy="118.77674"
       fx="177.22487"
       fy="118.77674"
       r="2.4496355"
       gradientTransform="matrix(1,0,0,1.112451,8.8900403,-11.865027)"
       gradientUnits="userSpaceOnUse" /><radialGradient
       xlink:href="#linearGradient19555"
       id="radialGradient15581"
       cx="173.17831"
       cy="140.96013"
       fx="173.17831"
       fy="140.96013"
       r="25.530479"
       gradientTransform="matrix(1.04395,0,0,0.90072764,-7.6111992,-0.03903516)"
       gradientUnits="userSpaceOnUse" /><filter
       style="color-interpolation-filters:sRGB"
       id="filter17368"
       x="-0.13333943"
       y="-0.55206027"
       width="1.2666789"
       height="2.1041205"><feGaussianBlur
         stdDeviation="2.3970479"
         id="feGaussianBlur17370" /></filter><linearGradient
       xlink:href="#linearGradient18066"
       id="linearGradient18068"
       x1="173.16978"
       y1="104.60963"
       x2="173.16978"
       y2="115.03044"
       gradientUnits="userSpaceOnUse" /><filter
       style="color-interpolation-filters:sRGB"
       id="filter19184"
       x="-0.18752626"
       y="-0.73417565"
       width="1.3750525"
       height="2.4683513"><feGaussianBlur
         stdDeviation="3.340793"
         id="feGaussianBlur19182" /></filter><clipPath
       clipPathUnits="userSpaceOnUse"
       id="clipPath19190"><path
         id="path19192"
         style="fill:url(#radialGradient19194);fill-opacity:1;stroke-width:11.0002;stroke-linecap:round;stroke-linejoin:round;paint-order:stroke fill markers"
         d="m 173.16979,103.93164 a 25.680634,25.680634 0 0 0 -25.52195,22.99601 h 51.06096 a 25.680634,25.680634 0 0 0 -25.53901,-22.99601 z" /></clipPath><radialGradient
       xlink:href="#linearGradient15579"
       id="radialGradient19194"
       gradientUnits="userSpaceOnUse"
       gradientTransform="matrix(1.04395,0,0,0.90072763,-7.6111992,-0.03903516)"
       cx="173.17831"
       cy="140.96013"
       fx="173.17831"
       fy="140.96013"
       r="25.530479" /><clipPath
       clipPathUnits="userSpaceOnUse"
       id="clipPath19198"><path
         id="path19200"
         style="fill:url(#radialGradient19202);fill-opacity:1;stroke-width:15.5367;stroke-linecap:round;stroke-linejoin:round;paint-order:stroke fill markers"
         d="m 173.11985,103.65204 a 36.271255,36.271255 0 0 0 -36.04713,32.4795 h 72.11836 a 36.271255,36.271255 0 0 0 -36.07123,-32.4795 z" /></clipPath><radialGradient
       xlink:href="#linearGradient15579"
       id="radialGradient19202"
       gradientUnits="userSpaceOnUse"
       gradientTransform="matrix(1.474472,0,0,1.2721852,-82.214709,-43.19585)"
       cx="173.17831"
       cy="140.96013"
       fx="173.17831"
       fy="140.96013"
       r="25.530479" /><linearGradient
       xlink:href="#linearGradient25048"
       id="linearGradient21709"
       x1="157.50719"
       y1="104.1368"
       x2="161.44235"
       y2="101.97052"
       gradientUnits="userSpaceOnUse" /><filter
       style="color-interpolation-filters:sRGB"
       id="filter25026"
       x="-0.15901417"
       y="-0.146466"
       width="1.3180283"
       height="1.292932"><feGaussianBlur
         stdDeviation="0.64423464"
         id="feGaussianBlur25028" /></filter><clipPath
       clipPathUnits="userSpaceOnUse"
       id="clipPath25032"><path
         id="path25034"
         style="fill:url(#linearGradient25036);fill-opacity:1;stroke-width:8.245;stroke-linecap:round;stroke-linejoin:round;paint-order:stroke fill markers"
         d="m 157.35215,97.254528 c -1.2238,3e-6 -2.21588,0.99209 -2.21588,2.215886 5.3e-4,0.349324 0.0839,0.693546 0.24288,1.004586 l 4.25607,7.32359 3.03857,-0.36277 1.04335,-1.69395 -4.54959,-7.542697 c -0.41478,-0.592193 -1.09239,-0.944785 -1.8154,-0.944645 z"
         /></clipPath><linearGradient
       xlink:href="#linearGradient21707"
       id="linearGradient25036"
       gradientUnits="userSpaceOnUse"
       x1="157.50719"
       y1="104.1368"
       x2="161.44235"
       y2="101.97052" /><linearGradient
       xlink:href="#linearGradient25399"
       id="linearGradient25401"
       x1="160.25763"
       y1="100.00639"
       x2="156.13103"
       y2="97.621071"
       gradientUnits="userSpaceOnUse" /><filter
       style="color-interpolation-filters:sRGB"
       id="filter28167"
       x="-0.047869877"
       y="-0.044092354"
       width="1.0957398"
       height="1.0881847"><feGaussianBlur
         stdDeviation="0.19394142"
         id="feGaussianBlur28165" /></filter><linearGradient
       xlink:href="#linearGradient25048"
       id="linearGradient28199"
       gradientUnits="userSpaceOnUse"
       x1="157.50719"
       y1="104.1368"
       x2="161.44235"
       y2="101.97052"
       gradientTransform="matrix(-1,0,0,1,346.44948,0)" /><linearGradient
       xlink:href="#linearGradient25399"
       id="linearGradient28201"
       gradientUnits="userSpaceOnUse"
       x1="160.25763"
       y1="100.00639"
       x2="156.13103"
       y2="97.621071" /><linearGradient
       xlink:href="#linearGradient25399"
       id="linearGradient28203"
       gradientUnits="userSpaceOnUse"
       x1="160.25763"
       y1="100.00639"
       x2="156.13103"
       y2="97.621071" /><linearGradient
       xlink:href="#linearGradient28572"
       id="linearGradient28205"
       gradientUnits="userSpaceOnUse"
       x1="157.50719"
       y1="104.1368"
       x2="161.44235"
       y2="101.97052"
       gradientTransform="matrix(-1,0,0,1,346.44948,0)" /><linearGradient
       xlink:href="#linearGradient25399"
       id="linearGradient28207"
       gradientUnits="userSpaceOnUse"
       x1="160.25763"
       y1="100.00639"
       x2="156.13103"
       y2="97.621071" /><linearGradient
       xlink:href="#linearGradient25399"
       id="linearGradient28209"
       gradientUnits="userSpaceOnUse"
       x1="160.25763"
       y1="100.00639"
       x2="156.13103"
       y2="97.621071" /><linearGradient
       xlink:href="#linearGradient33156"
       id="linearGradient29430"
       x1="-165.42984"
       y1="118.34532"
       x2="-162.14827"
       y2="120.62858"
       gradientUnits="userSpaceOnUse" /><filter
       style="color-interpolation-filters:sRGB"
       id="filter31284"
       x="-0.053902708"
       y="-0.044768501"
       width="1.1078054"
       height="1.089537"><feGaussianBlur
         stdDeviation="0.098597397"
         id="feGaussianBlur31286" /></filter><clipPath
       clipPathUnits="userSpaceOnUse"
       id="clipPath32049"><ellipse
         style="fill:url(#linearGradient32053);fill-opacity:1;stroke-width:8.94842;stroke-linecap:round;stroke-linejoin:round;paint-order:stroke fill markers"
         id="ellipse32051"
         cx="-164.01886"
         cy="119.57114"
         rx="2.4496355"
         ry="2.7093031"
         transform="matrix(-1,0,0.17634434,0.98432854,0,0)" /></clipPath><linearGradient
       xlink:href="#linearGradient14045"
       id="linearGradient32053"
       gradientUnits="userSpaceOnUse"
       x1="-165.42984"
       y1="118.34532"
       x2="-162.14827"
       y2="120.62858" /><filter
       style="color-interpolation-filters:sRGB"
       id="filter32602"
       x="-0.11949068"
       y="-0.47861589"
       width="1.2389814"
       height="1.9572318"><feGaussianBlur
         stdDeviation="0.098008745"
         id="feGaussianBlur32604" /></filter><filter
       style="color-interpolation-filters:sRGB"
       id="filter33138"
       x="-0.15918764"
       y="-0.37858438"
       width="1.3183753"
       height="1.7571688"><feGaussianBlur
         stdDeviation="0.189166"
         id="feGaussianBlur33140" /></filter><clipPath
       clipPathUnits="userSpaceOnUse"
       id="clipPath33144"><ellipse
         style="fill:url(#linearGradient33148);fill-opacity:1;stroke-width:8.94842;stroke-linecap:round;stroke-linejoin:round;paint-order:stroke fill markers"
         id="ellipse33146"
         cx="-164.01886"
         cy="119.57114"
         rx="2.4496355"
         ry="2.7093031"
         transform="matrix(-1,0,0.17634434,0.98432854,0,0)" /></clipPath><linearGradient
       xlink:href="#linearGradient14045"
       id="linearGradient33148"
       gradientUnits="userSpaceOnUse"
       x1="-165.42984"
       y1="118.34532"
       x2="-162.14827"
       y2="120.62858" /><filter
       style="color-interpolation-filters:sRGB"
       id="filter34203"
       x="-0.027714726"
       y="-0.2080222"
       width="1.0554295"
       height="1.4160444"><feGaussianBlur
         stdDeviation="0.30710287"
         id="feGaussianBlur34201" /></filter><filter
       style="color-interpolation-filters:sRGB"
       id="filter37117"
       x="-0.14793818"
       y="-0.13375935"
       width="1.2958764"
       height="1.2675187"><feGaussianBlur
         stdDeviation="0.30199552"
         id="feGaussianBlur37119" /></filter><linearGradient
       xlink:href="#linearGradient38160"
       id="linearGradient38162"
       x1="-163.54109"
       y1="122.28044"
       x2="-164.49663"
       y2="116.86183"
       gradientUnits="userSpaceOnUse" /><filter
       style="color-interpolation-filters:sRGB"
       id="filter39686"
       x="-0.0078218324"
       y="-0.058709394"
       width="1.0156437"
       height="1.1174188"><feGaussianBlur
         stdDeviation="0.086672587"
         id="feGaussianBlur39684" /></filter><filter
       style="color-interpolation-filters:sRGB"
       id="filter40028"
       x="-0.22826241"
       y="-0.31615987"
       width="1.4565248"
       height="1.6323197"><feGaussianBlur
         stdDeviation="0.44255928"
         id="feGaussianBlur40030" /></filter><clipPath
       clipPathUnits="userSpaceOnUse"
       id="clipPath40046"><g
         id="g40060"><path
           id="path40048"
           style="fill:url(#linearGradient40062);fill-opacity:1;stroke-width:8.245;stroke-linecap:round;stroke-linejoin:round;paint-order:stroke fill markers"
           d="m 157.35215,97.254529 c -1.2238,3e-6 -2.21588,0.992088 -2.21588,2.215885 6.4e-4,0.349325 0.0839,0.693546 0.24288,1.004586 l 4.25607,7.32359 3.03857,-0.36277 1.04335,-1.69395 -4.54959,-7.542696 c -0.41478,-0.592193 -1.09239,-0.944787 -1.8154,-0.944645 z"
           /><path
           style="mix-blend-mode:normal;fill:url(#linearGradient40064);fill-opacity:1;stroke:none;stroke-width:0.600001;stroke-linecap:round;stroke-linejoin:round;stroke-dasharray:none;stroke-opacity:1;paint-order:stroke fill markers;filter:url(#filter25026)"
           d="m 155.13627,98.852496 c 1.26535,-0.92185 2.46098,-1.189321 3.6468,-0.446521 l 4.16719,7.821755 1.75286,-1.05833 -2.97656,-7.639845 -3.57187,-1.85829 -3.175,1.72599 z"
           id="path40050"
           clip-path="url(#clipPath25032)" /><path
           style="mix-blend-mode:normal;fill:url(#linearGradient40066);fill-opacity:1;stroke:none;stroke-width:0.600001;stroke-linecap:round;stroke-linejoin:round;stroke-dasharray:none;stroke-opacity:1;paint-order:stroke fill markers;filter:url(#filter28167)"
           d="m 155.13627,98.852496 c 1.26535,-0.92185 2.46098,-1.189321 3.6468,-0.446521 l 4.16719,7.821755 1.75286,-1.05833 -2.97656,-7.639845 -3.57187,-1.85829 -3.175,1.72599 z"
           id="path40052"
           clip-path="url(#clipPath25032)" /><path
           id="path40054"
           style="fill:url(#linearGradient40068);fill-opacity:1;stroke-width:8.245;stroke-linecap:round;stroke-linejoin:round;paint-order:stroke fill markers"
           d="m 157.35215,97.254529 c -1.2238,3e-6 -2.21588,0.992088 -2.21588,2.215885 6.4e-4,0.349325 0.0839,0.693546 0.24288,1.004586 l 4.25607,7.32359 3.03857,-0.36277 1.04335,-1.69395 -4.54959,-7.542696 c -0.41478,-0.592193 -1.09239,-0.944787 -1.8154,-0.944645 z"
           /><path
           style="mix-blend-mode:normal;fill:url(#linearGradient40070);fill-opacity:1;stroke:none;stroke-width:0.600001;stroke-linecap:round;stroke-linejoin:round;stroke-dasharray:none;stroke-opacity:1;paint-order:stroke fill markers;filter:url(#filter25026)"
           d="m 155.13627,98.852496 c 1.26535,-0.92185 2.46098,-1.189321 3.6468,-0.446521 l 4.16719,7.821755 1.75286,-1.05833 -2.97656,-7.639845 -3.57187,-1.85829 -3.175,1.72599 z"
           id="path40056"
           clip-path="url(#clipPath25032)" /><path
           style="mix-blend-mode:normal;fill:url(#linearGradient40072);fill-opacity:1;stroke:none;stroke-width:0.600001;stroke-linecap:round;stroke-linejoin:round;stroke-dasharray:none;stroke-opacity:1;paint-order:stroke fill markers;filter:url(#filter28167)"
           d="m 155.13627,98.852496 c 1.26535,-0.92185 2.46098,-1.189321 3.6468,-0.446521 l 4.16719,7.821755 1.75286,-1.05833 -2.97656,-7.639845 -3.57187,-1.85829 -3.175,1.72599 z"
           id="path40058"
           clip-path="url(#clipPath25032)" /></g></clipPath><linearGradient
       xlink:href="#linearGradient25048"
       id="linearGradient40062"
       gradientUnits="userSpaceOnUse"
       x1="157.50719"
       y1="104.1368"
       x2="161.44235"
       y2="101.97052" /><linearGradient
       xlink:href="#linearGradient25399"
       id="linearGradient40064"
       gradientUnits="userSpaceOnUse"
       x1="160.25763"
       y1="100.00639"
       x2="156.13103"
       y2="97.621071" /><linearGradient
       xlink:href="#linearGradient25399"
       id="linearGradient40066"
       gradientUnits="userSpaceOnUse"
       x1="160.25763"
       y1="100.00639"
       x2="156.13103"
       y2="97.621071" /><linearGradient
       xlink:href="#linearGradient25048"
       id="linearGradient40068"
       gradientUnits="userSpaceOnUse"
       x1="157.50719"
       y1="104.1368"
       x2="161.44235"
       y2="101.97052" /><linearGradient
       xlink:href="#linearGradient25399"
       id="linearGradient40070"
       gradientUnits="userSpaceOnUse"
       x1="160.25763"
       y1="100.00639"
       x2="156.13103"
       y2="97.621071" /><linearGradient
       xlink:href="#linearGradient25399"
       id="linearGradient40072"
       gradientUnits="userSpaceOnUse"
       x1="160.25763"
       y1="100.00639"
       x2="156.13103"
       y2="97.621071" /><linearGradient
       xlink:href="#linearGradient40080"
       id="linearGradient40082"
       x1="161.54057"
       y1="106.54541"
       x2="162.6738"
       y2="107.43582"
       gradientUnits="userSpaceOnUse" /><filter
       style="color-interpolation-filters:sRGB"
       id="filter40500"
       x="-0.30771885"
       y="-0.42621276"
       width="1.6154377"
       height="1.8524255"><feGaussianBlur
         stdDeviation="0.59661082"
         id="feGaussianBlur40498" /></filter><linearGradient
       xlink:href="#linearGradient40562"
       id="linearGradient40564"
       x1="155.13757"
       y1="111.78979"
       x2="163.71713"
       y2="105.74187"
       gradientUnits="userSpaceOnUse" /><filter
       style="color-interpolation-filters:sRGB"
       id="filter41256"
       x="-0.06033335"
       y="-0.080505232"
       width="1.1206667"
       height="1.1610105"><feGaussianBlur
         stdDeviation="0.24846028"
         id="feGaussianBlur41258" /></filter><clipPath
       clipPathUnits="userSpaceOnUse"
       id="clipPath41262"><path
         id="path41264"
         style="fill:url(#radialGradient41266);fill-opacity:1;stroke-width:11.0002;stroke-linecap:round;stroke-linejoin:round;paint-order:stroke fill markers"
         d="m 173.16979,103.93164 a 25.680634,25.680634 0 0 0 -25.52195,22.99601 h 51.06096 a 25.680634,25.680634 0 0 0 -25.53901,-22.99601 z" /></clipPath><radialGradient
       xlink:href="#linearGradient19555"
       id="radialGradient41266"
       gradientUnits="userSpaceOnUse"
       gradientTransform="matrix(1.04395,0,0,0.90072763,-7.6111992,-0.03903516)"
       cx="173.17831"
       cy="140.96013"
       fx="173.17831"
       fy="140.96013"
       r="25.530479" /><filter
       style="color-interpolation-filters:sRGB"
       id="filter41272"
       x="-0.0041782101"
       y="-0.0055751548"
       width="1.0083564"
       height="1.0111503"><feGaussianBlur
         stdDeviation="0.017206391"
         id="feGaussianBlur41270" /></filter><linearGradient
       xlink:href="#linearGradient40562"
       id="linearGradient41292"
       gradientUnits="userSpaceOnUse"
       x1="155.13757"
       y1="111.78979"
       x2="163.71713"
       y2="105.74187" /><linearGradient
       xlink:href="#linearGradient40562"
       id="linearGradient41294"
       gradientUnits="userSpaceOnUse"
       x1="155.13757"
       y1="111.78979"
       x2="163.71713"
       y2="105.74187" /><linearGradient
       xlink:href="#linearGradient25048"
       id="linearGradient41395"
       gradientUnits="userSpaceOnUse"
       x1="157.50719"
       y1="104.1368"
       x2="161.44235"
       y2="101.97052" /><linearGradient
       xlink:href="#linearGradient25399"
       id="linearGradient41397"
       gradientUnits="userSpaceOnUse"
       x1="160.25763"
       y1="100.00639"
       x2="156.13103"
       y2="97.621071" /><linearGradient
       xlink:href="#linearGradient25399"
       id="linearGradient41399"
       gradientUnits="userSpaceOnUse"
       x1="160.25763"
       y1="100.00639"
       x2="156.13103"
       y2="97.621071" /><linearGradient
       xlink:href="#linearGradient25399"
       id="linearGradient41401"
       gradientUnits="userSpaceOnUse"
       x1="160.25763"
       y1="100.00639"
       x2="156.13103"
       y2="97.621071" /><linearGradient
       xlink:href="#linearGradient41415"
       id="linearGradient41417"
       x1="161.62859"
       y1="105.74187"
       x2="162.97255"
       y2="107.79859"
       gradientUnits="userSpaceOnUse" /><linearGradient
       xlink:href="#linearGradient33156"
       id="linearGradient42528"
       gradientUnits="userSpaceOnUse"
       x1="-165.42984"
       y1="118.34532"
       x2="-162.14827"
       y2="120.62858" /><linearGradient
       xlink:href="#linearGradient40562"
       id="linearGradient42530"
       gradientUnits="userSpaceOnUse"
       x1="155.13757"
       y1="111.78979"
       x2="163.71713"
       y2="105.74187" /><linearGradient
       xlink:href="#linearGradient40562"
       id="linearGradient42532"
       gradientUnits="userSpaceOnUse"
       x1="155.13757"
       y1="111.78979"
       x2="163.71713"
       y2="105.74187" /><linearGradient
       xlink:href="#linearGradient40562"
       id="linearGradient42534"
       gradientUnits="userSpaceOnUse"
       x1="155.13757"
       y1="111.78979"
       x2="163.71713"
       y2="105.74187" /></defs><g
     id="layer1"
     transform="translate(-155.34134,-97.525731)"><g
       id="g42572"><g
         id="g42526"
         transform="matrix(1.1712938,0,0,1.1712938,-17.59766,-16.387895)"><g
           id="g28183"><path
             id="path7721"
             style="fill:url(#linearGradient41395);fill-opacity:1;stroke-width:8.245;stroke-linecap:round;stroke-linejoin:round;paint-order:stroke fill markers"
             d="m 157.35215,97.254529 c -1.2238,3e-6 -2.21588,0.992088 -2.21588,2.215885 6.4e-4,0.349325 0.0839,0.693546 0.24288,1.004586 l 4.25607,7.32359 3.03857,-0.36277 1.04335,-1.69395 -4.54959,-7.542696 c -0.41478,-0.592193 -1.09239,-0.944787 -1.8154,-0.944645 z"
             /><path
             style="mix-blend-mode:normal;fill:url(#linearGradient41397);fill-opacity:1;stroke:none;stroke-width:0.600001;stroke-linecap:round;stroke-linejoin:round;stroke-dasharray:none;stroke-opacity:1;paint-order:stroke fill markers;filter:url(#filter25026)"
             d="m 155.13627,98.852496 c 1.26535,-0.92185 2.46098,-1.189321 3.6468,-0.446521 l 4.16719,7.821755 1.75286,-1.05833 -2.97656,-7.639845 -3.57187,-1.85829 -3.175,1.72599 z"
             id="path24395"
             clip-path="url(#clipPath25032)" /><path
             style="mix-blend-mode:normal;fill:url(#linearGradient41399);fill-opacity:1;stroke:none;stroke-width:0.600001;stroke-linecap:round;stroke-linejoin:round;stroke-dasharray:none;stroke-opacity:1;paint-order:stroke fill markers;filter:url(#filter28167)"
             d="m 155.13627,98.852496 c 1.26535,-0.92185 2.46098,-1.189321 3.6468,-0.446521 l 4.16719,7.821755 1.75286,-1.05833 -2.97656,-7.639845 -3.57187,-1.85829 -3.175,1.72599 z"
             id="path28163"
             clip-path="url(#clipPath25032)" /><path
             id="path28171"
             style="fill:url(#linearGradient21709);fill-opacity:1;stroke-width:8.245;stroke-linecap:round;stroke-linejoin:round;paint-order:stroke fill markers"
             d="m 157.35215,97.254529 c -1.2238,3e-6 -2.21588,0.992088 -2.21588,2.215885 6.4e-4,0.349325 0.0839,0.693546 0.24288,1.004586 l 4.25607,7.32359 3.03857,-0.36277 1.04335,-1.69395 -4.54959,-7.542696 c -0.41478,-0.592193 -1.09239,-0.944787 -1.8154,-0.944645 z"
             /><path
             style="mix-blend-mode:normal;fill:url(#linearGradient41401);fill-opacity:1;stroke:none;stroke-width:0.600001;stroke-linecap:round;stroke-linejoin:round;stroke-dasharray:none;stroke-opacity:1;paint-order:stroke fill markers;filter:url(#filter25026)"
             d="m 155.13627,98.852496 c 1.26535,-0.92185 2.46098,-1.189321 3.6468,-0.446521 l 4.16719,7.821755 1.75286,-1.05833 -2.97656,-7.639845 -3.57187,-1.85829 -3.175,1.72599 z"
             id="path28173"
             clip-path="url(#clipPath25032)" /><path
             style="mix-blend-mode:normal;fill:url(#linearGradient25401);fill-opacity:1;stroke:none;stroke-width:0.600001;stroke-linecap:round;stroke-linejoin:round;stroke-dasharray:none;stroke-opacity:1;paint-order:stroke fill markers;filter:url(#filter28167)"
             d="m 155.13627,98.852496 c 1.26535,-0.92185 2.46098,-1.189321 3.6468,-0.446521 l 4.16719,7.821755 1.75286,-1.05833 -2.97656,-7.639845 -3.57187,-1.85829 -3.175,1.72599 z"
             id="path28175"
             clip-path="url(#clipPath25032)" /></g><path
           style="fill:url(#linearGradient41417);fill-opacity:1;stroke:none;stroke-width:0.4;stroke-linecap:round;stroke-linejoin:round;stroke-dasharray:none;stroke-opacity:1;paint-order:stroke fill markers;filter:url(#filter40028)"
           d="m 163.44592,105.29223 -3.8107,2.50636 3.78673,0.85315 c 0.39619,-1.19744 1.72036,-2.58039 0.024,-3.35951 z"
           id="path39742"
           clip-path="url(#clipPath40046)" /><g
           id="g28927"
           transform="translate(-0.07422183)"><path
             id="path28185"
             style="fill:url(#linearGradient28199);fill-opacity:1;stroke-width:8.245;stroke-linecap:round;stroke-linejoin:round;paint-order:stroke fill markers"
             d="m 189.09733,97.254529 c 1.2238,3e-6 2.21588,0.992088 2.21588,2.215885 -6.4e-4,0.349325 -0.0839,0.693546 -0.24288,1.004586 l -4.25607,7.32359 -3.03857,-0.36277 -1.04335,-1.69395 4.54959,-7.542696 c 0.41478,-0.592193 1.09239,-0.944787 1.8154,-0.944645 z"
             /><path
             style="mix-blend-mode:normal;fill:url(#linearGradient28201);fill-opacity:1;stroke:none;stroke-width:0.600001;stroke-linecap:round;stroke-linejoin:round;stroke-dasharray:none;stroke-opacity:1;paint-order:stroke fill markers;filter:url(#filter25026)"
             d="m 155.13627,98.852496 c 1.26535,-0.92185 2.46098,-1.189321 3.6468,-0.446521 l 4.16719,7.821755 1.75286,-1.05833 -2.97656,-7.639845 -3.57187,-1.85829 -3.175,1.72599 z"
             id="path28187"
             clip-path="url(#clipPath25032)"
             transform="matrix(-1,0,0,1,346.44948,0)" /><path
             style="mix-blend-mode:normal;fill:url(#linearGradient28203);fill-opacity:1;stroke:none;stroke-width:0.600001;stroke-linecap:round;stroke-linejoin:round;stroke-dasharray:none;stroke-opacity:1;paint-order:stroke fill markers;filter:url(#filter28167)"
             d="m 155.13627,98.852496 c 1.26535,-0.92185 2.46098,-1.189321 3.6468,-0.446521 l 4.16719,7.821755 1.75286,-1.05833 -2.97656,-7.639845 -3.57187,-1.85829 -3.175,1.72599 z"
             id="path28189"
             clip-path="url(#clipPath25032)"
             transform="matrix(-1,0,0,1,346.44948,0)" /><path
             id="path28191"
             style="fill:url(#linearGradient28205);fill-opacity:1;stroke-width:8.245;stroke-linecap:round;stroke-linejoin:round;paint-order:stroke fill markers"
             d="m 189.09733,97.254529 c 1.2238,3e-6 2.21588,0.992088 2.21588,2.215885 -6.4e-4,0.349325 -0.0839,0.693546 -0.24288,1.004586 l -4.25607,7.32359 -3.03857,-0.36277 -1.04335,-1.69395 4.54959,-7.542696 c 0.41478,-0.592193 1.09239,-0.944787 1.8154,-0.944645 z"
             /><path
             style="mix-blend-mode:normal;fill:url(#linearGradient28207);fill-opacity:1;stroke:none;stroke-width:0.600001;stroke-linecap:round;stroke-linejoin:round;stroke-dasharray:none;stroke-opacity:1;paint-order:stroke fill markers;filter:url(#filter25026)"
             d="m 155.13627,98.852496 c 1.26535,-0.92185 2.46098,-1.189321 3.6468,-0.446521 l 4.16719,7.821755 1.75286,-1.05833 -2.97656,-7.639845 -3.57187,-1.85829 -3.175,1.72599 z"
             id="path28193"
             clip-path="url(#clipPath25032)"
             transform="matrix(-1,0,0,1,346.44948,0)" /><path
             style="mix-blend-mode:normal;fill:url(#linearGradient28209);fill-opacity:1;stroke:none;stroke-width:0.600001;stroke-linecap:round;stroke-linejoin:round;stroke-dasharray:none;stroke-opacity:1;paint-order:stroke fill markers;filter:url(#filter28167)"
             d="m 155.13627,98.852496 c 1.26535,-0.92185 2.46098,-1.189321 3.6468,-0.446521 l 4.16719,7.821755 1.75286,-1.05833 -2.97656,-7.639845 -3.57187,-1.85829 -3.175,1.72599 z"
             id="path28195"
             clip-path="url(#clipPath25032)"
             transform="matrix(-1,0,0,1,346.44948,0)" /></g><path
           style="fill:url(#linearGradient40082);fill-opacity:1;stroke:none;stroke-width:0.4;stroke-linecap:round;stroke-linejoin:round;stroke-dasharray:none;stroke-opacity:1;paint-order:stroke fill markers;filter:url(#filter40500)"
           d="m 163.44592,105.29223 -3.8107,2.50636 3.78673,0.85315 c 0.39619,-1.19744 1.72036,-2.58039 0.024,-3.35951 z"
           id="path40074"
           clip-path="url(#clipPath40046)"
           transform="matrix(-1,0,0,1,346.37526,0)" /><path
           id="path7716"
           style="fill:url(#radialGradient15581);fill-opacity:1;stroke-width:11.0002;stroke-linecap:round;stroke-linejoin:round;paint-order:stroke fill markers"
           d="m 173.16979,103.93164 a 25.680634,25.680634 0 0 0 -25.52195,22.99601 h 51.06096 a 25.680634,25.680634 0 0 0 -25.53901,-22.99601 z" /><ellipse
           style="mix-blend-mode:normal;fill:url(#linearGradient38162);fill-opacity:1;stroke-width:8.94842;stroke-linecap:round;stroke-linejoin:round;paint-order:stroke fill markers;filter:url(#filter37117)"
           id="ellipse36630"
           cx="-164.01886"
           cy="119.57114"
           rx="2.4496355"
           ry="2.7093031"
           transform="matrix(-1.0640424,0,0.18763785,1.0473673,-11.854534,-7.56809)" /><ellipse
           style="fill:url(#linearGradient42528);fill-opacity:1;stroke-width:8.94842;stroke-linecap:round;stroke-linejoin:round;paint-order:stroke fill markers"
           id="ellipse36208"
           cx="-164.01886"
           cy="119.57114"
           rx="2.4496355"
           ry="2.7093031"
           transform="matrix(-1,0,0.17634434,0.98432854,0,0)" /><path
           style="fill:url(#linearGradient18068);fill-opacity:1;stroke:none;stroke-width:0.600001;stroke-linecap:round;stroke-linejoin:round;stroke-dasharray:none;stroke-opacity:1;paint-order:stroke fill markers;filter:url(#filter19184)"
           d="m 151.71217,115.53058 h 7.52208 c 2.4156,-2.75375 6.43874,-3.18627 12.20877,-3.18627 9.40435,0 12.45567,-1.38321 15.09387,3.18628 h 7.93144 c -1.69167,-6.3134 -11.73599,-10.92096 -21.29854,-10.92096 -10.25,0.15116 -19.98049,5.40824 -21.45762,10.92095 z"
           id="path16883"
           clip-path="url(#clipPath19190)" /><ellipse
           style="fill:url(#radialGradient13058);fill-opacity:1;stroke-width:8.97447;stroke-linecap:round;stroke-linejoin:round;paint-order:stroke fill markers"
           id="path8454"
           cx="186.11491"
           cy="120.26827"
           rx="2.4496355"
           ry="2.7250993"
           transform="matrix(1,0,-0.20566317,0.97862284,0,0)" /><path
           style="fill:#a7d5aa;fill-opacity:1;stroke:none;stroke-width:0.600001;stroke-linecap:round;stroke-linejoin:round;stroke-dasharray:none;stroke-opacity:1;paint-order:stroke fill markers;filter:url(#filter17368)"
           d="m 151.43817,115.03043 h 7.59046 c 2.43756,-2.77879 8.00929,-2.68612 12.87359,-2.68612 7.92813,0 12.01509,-1.9249 14.67728,2.68613 h 8.00356 c -1.70706,-6.3708 -11.85072,-10.42081 -21.41327,-10.42081 -10.25,0.15116 -20.24106,4.85797 -21.73162,10.4208 z"
           id="path19040"
           transform="matrix(0.70801614,0,0,0.70801614,50.598142,30.544324)"
           clip-path="url(#clipPath19198)" /><ellipse
           style="fill:url(#linearGradient29430);fill-opacity:1;stroke-width:8.94842;stroke-linecap:round;stroke-linejoin:round;paint-order:stroke fill markers"
           id="ellipse8456"
           cx="-164.01886"
           cy="119.57114"
           rx="2.4496355"
           ry="2.7093031"
           transform="matrix(-1,0,0.17634434,0.98432854,0,0)" /><path
           style="fill:#083e15;fill-opacity:1;stroke:none;stroke-width:0.4;stroke-linecap:round;stroke-linejoin:round;stroke-dasharray:none;stroke-opacity:1;paint-order:stroke fill markers;filter:url(#filter31284)"
           d="m 186.577,120.11489 c 0.40134,-0.41767 0.94893,-1.4441 0.815,-1.67607 0.48981,-2.29198 -1.32635,-3.17621 -2.76522,-3.40838 l 3.5085,-0.20127 c 0,0 0.77859,2.36644 0.82683,2.53007 0.33884,1.14927 -0.95059,2.37127 -2.38511,2.75565 z"
           id="path31282"
           clip-path="url(#clipPath32049)" /><path
           style="mix-blend-mode:normal;fill:#445747;fill-opacity:1;stroke:none;stroke-width:0.4;stroke-linecap:round;stroke-linejoin:round;stroke-dasharray:none;stroke-opacity:1;paint-order:stroke fill markers;filter:url(#filter32602)"
           d="m 185.23314,115.76888 c -0.57707,-0.24133 -1.23556,-0.31602 -1.96853,-0.23829 0.71506,-0.25462 1.33009,-0.49992 1.96853,0.23829 z"
           id="path32109"
           /><path
           style="mix-blend-mode:normal;fill:#375f40;fill-opacity:1;stroke:none;stroke-width:0.4;stroke-linecap:round;stroke-linejoin:round;stroke-dasharray:none;stroke-opacity:1;paint-order:stroke fill markers;filter:url(#filter33138)"
           d="m 183.81543,115.19227 c 1.10912,-0.45363 1.92347,0.23366 2.78966,0.72034 l -0.18133,-1.1992 -2.67064,0.11576 z"
           id="path32660"
           clip-path="url(#clipPath33144)"
           /><path
           id="path34195"
           style="color:#000000;mix-blend-mode:normal;fill:#afb4ad;fill-opacity:1;stroke-linecap:round;stroke-linejoin:round;paint-order:stroke fill markers;filter:url(#filter34203)"
           d="m 185.54669,115.72927 c -0.0149,-3.3e-4 -0.0298,0.001 -0.0444,0.004 -0.0521,0.0106 -0.0978,0.0414 -0.12713,0.0858 -0.0615,0.0918 -0.037,0.21602 0.0548,0.27751 0.33366,0.22303 0.52573,0.45776 0.68368,0.67747 0.0647,0.0894 0.18955,0.10955 0.27905,0.045 0.0888,-0.0639 0.10973,-0.18734 0.047,-0.27698 -0.16985,-0.23628 -0.40327,-0.52121 -0.78703,-0.77773 -0.0313,-0.0213 -0.0681,-0.0333 -0.10594,-0.0346 z m -24.73389,0.0584 c -0.0377,8.2e-4 -0.0745,0.0123 -0.10594,0.0331 -0.38377,0.25652 -0.61718,0.54093 -0.78703,0.77721 -0.0649,0.0896 -0.0447,0.21487 0.045,0.27957 0.0896,0.0649 0.21487,0.0447 0.27957,-0.045 0.15794,-0.21971 0.35158,-0.45497 0.68523,-0.67799 0.0915,-0.0615 0.11596,-0.18533 0.0548,-0.27699 -0.0293,-0.0444 -0.075,-0.0752 -0.12712,-0.0858 v -5.2e-4 c -0.0146,-0.003 -0.0295,-0.004 -0.0444,-0.004 z m 1.89825,2.66855 c 0.0376,-0.0376 -0.1041,0.0212 -0.14159,0.0589 -0.17025,0.17007 -0.33902,0.2726 -0.52762,0.38499 -0.0947,0.0562 -0.12614,0.17844 -0.0703,0.27337 0.0563,0.096 0.18005,0.12755 0.27544,0.0703 0.18947,-0.11291 0.39782,-0.23785 0.60565,-0.44545 0.0783,-0.0781 0.0783,-0.20504 0,-0.28319 -0.0375,-0.0377 -0.1792,-0.0213 -0.1416,-0.0589 z m 20.99131,-0.009 c -0.0531,4e-5 -0.1041,0.0212 -0.1416,0.0589 -0.0783,0.0781 -0.0783,0.20505 0,0.28319 0.20783,0.2076 0.41772,0.33254 0.6072,0.44545 0.0949,0.0558 0.21715,0.0244 0.27337,-0.0703 0.0558,-0.0949 0.0244,-0.21715 -0.0703,-0.27337 -0.1886,-0.11239 -0.35685,-0.21492 -0.5271,-0.38499 -0.0375,-0.0377 -0.0884,-0.0589 -0.14159,-0.0589 z"
           /><path
           id="path39682"
           style="color:#000000;mix-blend-mode:normal;fill:#afb4ad;fill-opacity:1;stroke-linecap:round;stroke-linejoin:round;paint-order:stroke fill markers;filter:url(#filter39686)"
           d="m 185.54669,115.72927 c -0.0149,-3.3e-4 -0.0298,0.001 -0.0444,0.004 -0.0521,0.0106 -0.0978,0.0414 -0.12713,0.0858 -0.0615,0.0918 -0.037,0.21602 0.0548,0.27751 0.33366,0.22303 0.52573,0.45776 0.68368,0.67747 0.0647,0.0894 0.18955,0.10955 0.27905,0.045 0.0888,-0.0639 0.10973,-0.18734 0.047,-0.27698 -0.16985,-0.23628 -0.40327,-0.52121 -0.78703,-0.77773 -0.0313,-0.0213 -0.0681,-0.0333 -0.10594,-0.0346 z m -24.73389,0.0584 c -0.0377,8.2e-4 -0.0745,0.0123 -0.10594,0.0331 -0.38377,0.25652 -0.61718,0.54093 -0.78703,0.77721 -0.0649,0.0896 -0.0447,0.21487 0.045,0.27957 0.0896,0.0649 0.21487,0.0447 0.27957,-0.045 0.15794,-0.21971 0.35158,-0.45497 0.68523,-0.67799 0.0915,-0.0615 0.11596,-0.18533 0.0548,-0.27699 -0.0293,-0.0444 -0.075,-0.0752 -0.12712,-0.0858 v -5.2e-4 c -0.0146,-0.003 -0.0295,-0.004 -0.0444,-0.004 z m 1.89825,2.66855 c 0.0376,-0.0376 -0.1041,0.0212 -0.14159,0.0589 -0.17025,0.17007 -0.33902,0.2726 -0.52762,0.38499 -0.0947,0.0562 -0.12614,0.17844 -0.0703,0.27337 0.0563,0.096 0.18005,0.12755 0.27544,0.0703 0.18947,-0.11291 0.39782,-0.23785 0.60565,-0.44545 0.0783,-0.0781 0.0783,-0.20504 0,-0.28319 -0.0375,-0.0377 -0.1792,-0.0213 -0.1416,-0.0589 z m 20.99131,-0.009 c -0.0531,4e-5 -0.1041,0.0212 -0.1416,0.0589 -0.0783,0.0781 -0.0783,0.20505 0,0.28319 0.20783,0.2076 0.41772,0.33254 0.6072,0.44545 0.0949,0.0558 0.21715,0.0244 0.27337,-0.0703 0.0558,-0.0949 0.0244,-0.21715 -0.0703,-0.27337 -0.1886,-0.11239 -0.35685,-0.21492 -0.5271,-0.38499 -0.0375,-0.0377 -0.0884,-0.0589 -0.14159,-0.0589 z"
           /><path
           style="mix-blend-mode:normal;fill:url(#linearGradient42530);fill-opacity:1;stroke:none;stroke-width:0.4;stroke-linecap:round;stroke-linejoin:round;stroke-dasharray:none;stroke-opacity:1;paint-order:stroke fill markers;filter:url(#filter41256)"
           d="m 163.71714,105.74187 c -3.0186,1.68048 -6.86549,3.87094 -9.68304,7.40703 l -0.20046,-3.7488 z"
           id="path40556"
           clip-path="url(#clipPath41262)" /><path
           style="mix-blend-mode:normal;fill:url(#linearGradient42532);fill-opacity:1;stroke:none;stroke-width:0.4;stroke-linecap:round;stroke-linejoin:round;stroke-dasharray:none;stroke-opacity:1;paint-order:stroke fill markers;filter:url(#filter41272)"
           d="m 163.71714,105.74187 c -3.0186,1.68048 -6.86549,3.87094 -9.68304,7.40703 l -0.20046,-3.7488 z"
           id="path41268"
           clip-path="url(#clipPath41262)" /><path
           style="mix-blend-mode:normal;fill:url(#linearGradient42534);fill-opacity:1;stroke:none;stroke-width:0.4;stroke-linecap:round;stroke-linejoin:round;stroke-dasharray:none;stroke-opacity:1;paint-order:stroke fill markers;filter:url(#filter41256)"
           d="m 163.71714,105.74187 c -3.0186,1.68048 -6.86549,3.87094 -9.68304,7.40703 l -0.20046,-3.7488 z"
           id="path41276"
           clip-path="url(#clipPath41262)" /><path
           style="mix-blend-mode:normal;fill:url(#linearGradient40564);fill-opacity:1;stroke:none;stroke-width:0.4;stroke-linecap:round;stroke-linejoin:round;stroke-dasharray:none;stroke-opacity:1;paint-order:stroke fill markers;filter:url(#filter41272)"
           d="m 163.71714,105.74187 c -3.0186,1.68048 -6.86549,3.87094 -9.68304,7.40703 l -0.20046,-3.7488 z"
           id="path41278"
           clip-path="url(#clipPath41262)" /><path
           style="mix-blend-mode:normal;fill:url(#linearGradient41294);fill-opacity:1;stroke:none;stroke-width:0.4;stroke-linecap:round;stroke-linejoin:round;stroke-dasharray:none;stroke-opacity:1;paint-order:stroke fill markers;filter:url(#filter41256)"
           d="m 163.71714,105.74187 c -3.0186,1.68048 -6.86549,3.87094 -9.68304,7.40703 l -0.20046,-3.7488 z"
           id="path41288"
           clip-path="url(#clipPath41262)"
           transform="matrix(-1,0,0,1,346.37574,0)" /><path
           style="mix-blend-mode:normal;fill:url(#linearGradient41292);fill-opacity:1;stroke:none;stroke-width:0.4;stroke-linecap:round;stroke-linejoin:round;stroke-dasharray:none;stroke-opacity:1;paint-order:stroke fill markers;filter:url(#filter41272)"
           d="m 163.71714,105.74187 c -3.0186,1.68048 -6.86549,3.87094 -9.68304,7.40703 l -0.20046,-3.7488 z"
           id="path41290"
           clip-path="url(#clipPath41262)"
           transform="matrix(-1,0,0,1,346.37574,0)" /></g></g></g></svg>
