<?xml version="1.0" encoding="UTF-8" standalone="no"?>
<svg
   version="1.1"
   id="Layer_1"
   x="0px"
   y="0px"
   width="306px"
   height="344.35px"
   viewBox="0 0 306 344.35"
   enable-background="new 0 0 306 344.35"
   xml:space="preserve"
   xmlns="http://www.w3.org/2000/svg"><defs
   id="defs6" />
<path
   fill="#00599C"
   d="M302.107,258.262c2.401-4.159,3.893-8.845,3.893-13.053V99.14c0-4.208-1.49-8.893-3.892-13.052L153,172.175  L302.107,258.262z"
   id="path1"
   style="fill:#7252aa;fill-opacity:1" />
<path
   fill="#004482"
   d="M166.25,341.193l126.5-73.034c3.644-2.104,6.956-5.737,9.357-9.897L153,172.175L3.893,258.263  c2.401,4.159,5.714,7.793,9.357,9.896l126.5,73.034C147.037,345.401,158.963,345.401,166.25,341.193z"
   id="path2"
   style="fill:#5e438f;fill-opacity:1" />
<path
   fill="#659AD2"
   d="M302.108,86.087c-2.402-4.16-5.715-7.793-9.358-9.897L166.25,3.156c-7.287-4.208-19.213-4.208-26.5,0  L13.25,76.19C5.962,80.397,0,90.725,0,99.14v146.069c0,4.208,1.491,8.894,3.893,13.053L153,172.175L302.108,86.087z"
   id="path3"
   style="fill:#a477db;fill-opacity:1" />

<path
   fill="#FFFFFF"
   d="M153,274.175c-56.243,0-102-45.757-102-102s45.757-102,102-102c36.292,0,70.139,19.53,88.331,50.968   l-44.143,25.544c-9.105-15.736-26.038-25.512-44.188-25.512c-28.122,0-51,22.878-51,51c0,28.121,22.878,51,51,51   c18.152,0,35.085-9.776,44.191-25.515l44.143,25.543C223.142,254.644,189.294,274.175,153,274.175z"
   id="path4" /><path
   d="m 233.61053,145 v 13.47368 h 13.47368 V 145 h 6.73684 v 13.47368 h 13.47369 v 6.73684 h -13.47369 v 13.47369 h 13.47369 v 6.73684 h -13.47369 v 13.47368 h -6.73684 v -13.47368 h -13.47368 v 13.47368 h -6.73685 V 185.42105 H 213.4 v -6.73684 h 13.47368 V 165.21052 H 213.4 v -6.73684 h 13.47368 V 145 Z m 13.47368,20.21052 h -13.47368 v 13.47369 h 13.47368 z"
   fill="#ffffff"
   id="path4-6" />

</svg>
