<?xml version="1.0" encoding="UTF-8" standalone="no"?>
<svg
   version="1.0"
   id="katman_1"
   x="0px"
   y="0px"
   viewBox="0 0 512 512"
   xml:space="preserve"
   width="512"
   height="512"
   xmlns:xlink="http://www.w3.org/1999/xlink"
   xmlns="http://www.w3.org/2000/svg"
   xmlns:svg="http://www.w3.org/2000/svg"><defs
   id="defs43" />
<style
   type="text/css"
   id="style2">
	.st0{fill:url(#SVGID_1_);}
	.st1{fill:url(#SVGID_00000130622934180993703410000017420799098261276343_);}
	.st2{fill:url(#SVGID_00000060739771362873723200000017991140373209755022_);}
	.st3{fill:#FFFFFF;}
</style>
<symbol
   id="rider"
   viewBox="-35 -35 70 70">
	<linearGradient
   id="SVGID_1_"
   gradientUnits="userSpaceOnUse"
   x1="30.4897"
   y1="5.1188998"
   x2="-23.4683"
   y2="-25.8451">
		<stop
   offset="0"
   style="stop-color:#DD1265"
   id="stop4" />
		<stop
   offset="0.483"
   style="stop-color:#DD1265"
   id="stop6" />
		<stop
   offset="0.942"
   style="stop-color:#FDB60D"
   id="stop8" />
	</linearGradient>
	<path
   class="st0"
   d="M 35,-7.7 -14.1,-35 18.8,13.9 25.5,9.5 Z"
   id="path11" />
	
		<linearGradient
   id="SVGID_00000169517474296634577950000016895268102491994795_"
   gradientUnits="userSpaceOnUse"
   x1="-1.5839"
   y1="-28.888"
   x2="19.805099"
   y2="30.174999">
		<stop
   offset="0.139"
   style="stop-color:#087CFA"
   id="stop13" />
		<stop
   offset="0.476"
   style="stop-color:#DD1265"
   id="stop15" />
		<stop
   offset="0.958"
   style="stop-color:#087CFA"
   id="stop17" />
	</linearGradient>
	<path
   style="fill:url(#SVGID_00000169517474296634577950000016895268102491994795_)"
   d="M 15.5,-18.9 9.3,-33.9 -4.3,-20.5 1.2,28.1 14.4,35 35,23 Z"
   id="path20" />
	
		<linearGradient
   id="SVGID_00000135668350575375336630000014638141720088491653_"
   gradientUnits="userSpaceOnUse"
   x1="-17.5865"
   y1="-27.071199"
   x2="-1.7875"
   y2="29.073799">
		<stop
   offset="0.278"
   style="stop-color:#DD1265"
   id="stop22" />
		<stop
   offset="0.968"
   style="stop-color:#FDB60D"
   id="stop24" />
	</linearGradient>
	<path
   style="fill:url(#SVGID_00000135668350575375336630000014638141720088491653_)"
   d="m -14.1,-35 -20.9,14.1 7.8,48.1 20.1,7.7 26,-21 z"
   id="path27" />
	<path
   d="M 21,-21 H -21 V 21 H 21 Z"
   id="path29" />
	<path
   class="st3"
   d="m -0.6,13.6 h -15.8 v 2.7 h 15.8 z"
   id="path31" />
	<path
   class="st3"
   d="m 0.5,-15.8 h 6.2 c 5,0 8.4,3.4 8.4,7.7 0,4.4 -3.4,7.9 -8.4,7.9 L 0.5,0 Z m 3.5,3.2 v 9.5 h 2.7 c 2.8,0 4.8,-1.9 4.8,-4.6 0,-2.8 -1.9,-4.7 -4.8,-4.7 z"
   id="path33" />
	<path
   class="st3"
   d="m -15.7,-15.8 h 7.2 c 2,0 3.5,0.6 4.6,1.6 0.9,0.9 1.3,2.1 1.3,3.6 v 0.1 c 0,1.3 -0.3,2.3 -0.9,3.1 -0.6,0.8 -1.4,1.4 -2.4,1.8 L -2,0 h -4.1 l -3.3,-4.8 h -2.9 V 0 h -3.5 z m 7,7.7 c 0.8,0 1.5,-0.2 2,-0.6 0.5,-0.4 0.7,-1 0.7,-1.6 v -0.1 c 0,-0.8 -0.2,-1.3 -0.7,-1.7 -0.5,-0.3 -1.1,-0.6 -2,-0.6 h -3.4 v 4.5 h 3.4 z"
   id="path35" />
</symbol>
<use
   xlink:href="#rider"
   width="70"
   height="70"
   x="-35"
   y="-35"
   transform="matrix(7.0682519,0,0,7.2481031,256,256)"
   style="overflow:visible"
   id="use38" />
</svg>
