<?xml version="1.0" encoding="UTF-8" standalone="no"?>
<svg width="64" height="41.963448"
   viewBox="0 0 64 41.963448"
   xml:space="preserve"
   xmlns="http://www.w3.org/2000/svg">
	<g transform="matrix(2.5185861,0,0,2.5185861,-8.9743407,-86.034639)">
		<path
       style="fill:#ffffff;fill-opacity:1;stroke-width:1.00644;stroke-dasharray:none;paint-order:stroke fill markers"
       d="m 15.269531,16.597656 c -1.93281,0.045 -3.885571,-0.05976 -5.8058738,0.100801 -1.2974984,0.22294 -1.9017825,1.591265 -1.8588659,2.794459 -0.1387301,5.159676 -0.00617,10.324363 -0.00755,15.485914 0.056345,2.835923 -0.030186,5.683536 0.1742478,8.511404 0.3295454,2.351061 2.3032169,4.288753 4.6457369,4.625241 2.020036,0.235601 4.069727,0.08492 6.101918,0.13014 6.218556,-0.02856 12.440683,0.01589 18.656642,-0.140146 2.805832,-0.219153 5.076792,-2.561949 5.634742,-5.252132 0.208214,-0.647313 0.151001,-1.453432 0.337915,-2.031071 2.793288,-0.09018 5.641167,-0.670448 7.991404,-2.2543 3.553812,-2.227335 5.605865,-6.507562 5.234908,-10.670389 -0.231284,-3.610069 -2.032312,-7.182123 -5.128527,-9.153231 -2.155489,-1.519158 -4.80843,-2.150988 -7.421513,-2.083963 -9.517949,-0.08529 -19.036899,-0.06099 -28.555179,-0.06273 z m 28.603516,7.201172 c 1.378426,-0.05496 2.911009,0.05968 3.91485,1.132819 1.088082,0.986791 1.523811,2.486566 1.360189,3.921296 0.01958,1.856263 -1.021484,3.755595 -2.821914,4.404869 -0.951395,0.456622 -2.039703,0.254653 -3.058594,0.302735 -0.03762,-3.252795 -0.07071,-6.507128 -0.0293,-9.759766 0.211589,-6.38e-4 0.423177,-0.0014 0.634766,-0.002 z m -13.351563,2.666016 c 1.507931,0.0087 2.889477,1.395688 2.690354,2.937767 -0.0066,1.525765 -1.031372,2.731346 -2.073091,3.728225 -1.884258,1.953003 -3.795576,3.882209 -5.781325,5.732445 -2.276963,-2.049303 -4.522133,-4.149446 -6.588242,-6.412064 -1.033638,-1.304536 -1.617751,-3.242405 -0.86293,-4.812545 1.029644,-1.502396 3.251129,-1.395767 4.707626,-0.631518 1.025191,0.60208 1.804594,1.530134 2.710343,2.287768 1.553846,-1.201104 3.017019,-3.037087 5.197265,-2.830078 z"
       transform="matrix(0.50875002,0,0,0.50875002,1.4330049e-7,26)" />
		<path
       style="fill:#434b57;fill-opacity:1"
       d="m -145.41149,293.33118 c -27.18645,-4.39748 -48.78308,-17.47825 -61.40776,-37.1938 -4.0006,-6.24762 -7.84395,-15.31357 -9.85473,-23.24603 -2.32518,-9.1728 -2.78909,-13.95982 -3.26435,-33.68403 -0.93394,-38.7607 -1.62147,-194.2902324 -1.12786,-255.138135 0.53614,-66.090295 0.23527,-61.111515 4.20718,-69.619145 6.08362,-13.03082 16.81935,-21.49003 29.80206,-23.48252 2.41673,-0.3709 77.37588,-0.48523 243.873588,-0.37196 222.924832,0.15166 240.846282,0.2264 246.743762,1.029 31.65602,4.30814 56.28749,13.63987 81.4,30.83872 23.04215,15.78092 39.0473,34.243192 51.38676,59.275695 9.2664,18.798348 14.74329,37.445174 17.64456,60.0733367 1.30535,10.1809413 1.30209,34.8321553 -0.006,44.5156263 -4.91833,36.412346 -20.47473,68.424322 -45.36855,93.359472 -31.90719,31.96015 -76.67199,50.72365 -127.55987,53.46766 l -6.47736,0.34928 -0.22636,1.57961 c -0.1245,0.86879 -0.59487,4.44133 -1.04527,7.93898 -3.20098,24.85761 -12.54736,46.05349 -27.19904,61.68247 -11.66158,12.43944 -29.11952,22.17251 -47.86024,26.68284 -5.17806,1.24621 -6.10634,1.29856 -30.27062,1.70735 -13.71082,0.23195 -88.802318,0.54648 -166.8700088,0.69897 C -121.63924,294.03432 -141.452,293.97166 -145.4116,293.33118 Z M 46.387263,259.97397 c 63.797257,-0.29065 122.176317,-0.70809 129.731257,-0.92765 l 13.73625,-0.39919 5.60022,-1.85149 c 10.75125,-3.55447 18.24797,-8.18231 25.51259,-15.74931 4.77602,-4.97481 7.32603,-8.59803 10.4988,-14.91734 5.80374,-11.55956 9.51777,-28.83608 9.51777,-44.2738 0,-3.11142 0.23234,-6.88229 0.51633,-8.37972 1.10327,-5.81755 4.42379,-10.1845 9.58339,-12.6035 2.76818,-1.29782 3.16217,-1.34256 10.75903,-1.22166 50.87773,0.80965 93.15542,-14.46413 122.89866,-44.39995 23.81922,-23.973446 36.44301,-55.408814 36.46286,-90.798672 0.0214,-38.233901 -13.02421,-73.628932 -35.97986,-97.619317 -12.36284,-12.920112 -33.49102,-26.5653 -51.16723,-33.045271 -10.18149,-3.73247 -19.07119,-6.00394 -31.73756,-8.1095 -4.72495,-0.78543 -23.56411,-0.86212 -244.877044,-0.99681 -218.650196,-0.13306 -239.867206,-0.0746 -240.995336,0.66463 -0.68038,0.4458 -1.7634,1.87903 -2.40672,3.18497 l -1.16967,2.37442 0.025,126.933127 c 0.0263,133.869253 0.60252,190.804873 2.02166,199.763723 2.71991,17.17043 10.96283,28.84909 25.42589,36.02367 6.1316,3.04166 12.32547,4.98743 19.35196,6.07932 5.90611,0.91779 35.10633,0.95991 186.691793,0.26932 z m 208.841887,-145.746 c -5.39158,-1.48996 -9.98492,-5.84753 -11.779,-11.1744 -0.56309,-1.6719 -0.68538,-16.243404 -0.68538,-81.665114 v -79.63011 l 1.67213,-3.39655 c 2.00731,-4.077386 5.19188,-7.064771 9.08306,-8.520647 2.61173,-0.977174 3.89862,-1.034465 23.23631,-1.034465 24.99799,0 30.59824,0.578427 41.88273,4.325891 13.95597,4.634639 27.53031,13.879799 37.06739,25.245704 14.3178,17.063399 20.61801,35.2811812 20.59981,59.566794 -0.0285,38.011784 -14.24896,66.593287 -41.46836,83.346557 -5.34963,3.29265 -16.11257,8.31532 -22.11994,10.32257 -7.30895,2.44215 -13.19236,2.96645 -35.86688,3.19626 -15.70364,0.15915 -19.28755,0.0626 -21.62187,-0.58249 z M 294.436,80.393485 c 6.21892,-0.505345 9.0346,-1.27546 15.37657,-4.205632 18.41477,-8.508145 28.68138,-22.92143 31.68253,-44.479052 1.27346,-9.147506 0.8128,-24.0986122 -0.9479,-30.76432121 -2.9644,-11.22274679 -9.44808,-20.89419079 -18.80499,-28.05066779 -9.99038,-7.640965 -21.65322,-10.814126 -38.27744,-10.414313 l -6.61375,0.159061 -0.13095,58.760627 c -0.072,32.318345 -0.0203,59.051197 0.11497,59.406338 0.26233,0.68878 5.58833,0.564098 17.60096,-0.41204 z"
       transform="matrix(0.03757927,0,0,0.03757927,11.876934,39.775978)" />
		<path
       style="fill:#ff5e5b;fill-opacity:1"
       d="m -197.07701,268.77888 -1.75324,-1.90781 1.90782,1.75324 c 1.04929,0.96428 1.90781,1.8228 1.90781,1.90781 0,0.38849 -0.43051,0.0225 -2.06239,-1.75324 z m 24.92875,-23.91125 -1.75324,-1.90781 1.90782,1.75324 c 1.04929,0.96428 1.90781,1.82279 1.90781,1.90781 0,0.38849 -0.43051,0.0225 -2.06239,-1.75324 z M 24.002262,191.89849 C 18.925885,188.75321 -35.713514,137.97822 -58.451915,115.27594 -75.395913,98.358854 -83.57329,89.275627 -88.4371,81.969141 c -6.537676,-9.820993 -12.08507,-23.433063 -14.76336,-36.225989 -1.82242,-8.704863 -2.27094,-21.719068 -1.02202,-29.655072 4.10504,-26.0846222 21.415389,-43.477638 49.529885,-49.766423 4.216174,-0.943094 6.502463,-1.101905 15.86423,-1.101966 9.458087,-6.2e-5 11.652647,0.155413 16.218751,1.149032 18.265356,3.974678 33.297449,12.080536 46.388936,25.0146222 l 3.959391,3.9117866 3.219275,-3.0455165 C 44.185716,-20.264155 59.746049,-29.246796 75.131639,-33.250871 c 2.658219,-0.691798 6.748608,-1.529291 9.089755,-1.861097 5.304095,-0.751739 17.815796,-0.355939 22.707126,0.718327 12.51194,2.747955 23.54429,8.166875 32.74002,16.081396 25.1657,21.6594562 27.71265,62.324438 5.9445,94.91081 -4.48144,6.708601 -9.88049,12.862266 -27.1634,30.959995 -21.637978,22.65811 -83.457006,81.79866 -88.221512,84.39907 -2.104679,1.14871 -4.310248,1.12776 -6.225866,-0.0591 z M 383.9429,115.77232 c 0.94922,-0.97935 1.84032,-1.78063 1.98023,-1.78063 0.1399,0 -0.52226,0.80128 -1.47148,1.78063 -0.94922,0.97934 -1.84032,1.78062 -1.98022,1.78062 -0.13991,0 0.52225,-0.80128 1.47147,-1.78062 z m -59.015,-49.762323 c 0,-0.08756 0.74405,-0.831603 1.65344,-1.653438 l 1.65343,-1.494245 -1.49424,1.653438 c -1.39285,1.541235 -1.81263,1.887285 -1.81263,1.494245 z m 1.49886,-88.744874 -1.75324,-1.907812 1.90782,1.753237 c 1.04929,0.964281 1.90781,1.822796 1.90781,1.907813 0,0.388492 -0.43051,0.02251 -2.06239,-1.753238 z m -79.84636,-43.05427 c 0,-0.105645 0.40064,-0.506285 0.89031,-0.890313 0.8069,-0.632819 0.8249,-0.614824 0.19208,0.192082 -0.66462,0.847449 -1.08239,1.11695 -1.08239,0.698231 z m 139.09479,-6.548857 -0.96916,-1.144687 1.14468,0.969162 c 1.07573,0.910774 1.37629,1.320213 0.96917,1.320213 -0.0965,0 -0.61165,-0.515109 -1.14469,-1.144688 z m -4.57875,-4.57875 -0.96916,-1.144687 1.14468,0.969162 c 1.07573,0.910774 1.37629,1.320213 0.96917,1.320213 -0.0965,0 -0.61165,-0.51511 -1.14469,-1.144688 z"
       transform="matrix(0.03757927,0,0,0.03757927,11.876934,39.775978)" />
	</g></svg>
