<?xml version="1.0" encoding="UTF-8" standalone="no"?>
<svg
   width="20"
   height="20"
   version="1.1"
   id="svg1"
   xmlns="http://www.w3.org/2000/svg"
   xmlns:svg="http://www.w3.org/2000/svg">
  <path
     d="m 20,16.33361 c 0,0.91663 -0.749877,1.666654 -1.666508,1.666654 H 1.6665078 C 0.74987717,18.000264 0,17.250387 0,16.33361 V 3.6665078 C 0,2.7498772 0.74987717,2 1.6665078,2 H 18.333492 C 19.250123,2 20,2.7498772 20,3.6665078 Z M 1.6665078,3.3332942 c -0.1770197,0 -0.3330669,0.1566339 -0.3330669,0.3330669 V 16.333463 c 0,0.17702 0.1561938,0.333067 0.3330669,0.333067 H 18.333492 c 0.176433,0 0.333507,-0.156047 0.333507,-0.333067 V 3.6663611 c 0,-0.176433 -0.157074,-0.3330669 -0.333507,-0.3330669 z m 3.0003886,5.3333236 c -1.1042099,0 -2.0006013,-0.8958048 -2.0006013,-1.9997214 0,-1.1039165 0.8963914,-2.0001613 2.0006013,-2.0001613 1.10377,0 1.9992814,0.8962448 1.9992814,2.0001613 0,1.1039166 -0.8953648,1.9997214 -1.9992814,1.9997214 z M 17.333118,15.333676 H 2.6662951 v -2.000455 l 3.3336022,-3.332722 1.6665078,1.666067 5.3333239,-5.3327365 4.333389,4.3333895 z"
     id="path1"
     style="stroke-width:0.146661" />
</svg>
