<svg viewBox="0 0 133.78773 212.09" width="133.78773" height="212.09" xmlns="http://www.w3.org/2000/svg">
  <path d="M 0.19772919,78.92 C 2.0477292,81.47 17.647729,86.28 40.917729,91.29 c 23.27,4.46 47.47,22.07 66.290001,16.64 12.73,-3.68 26.54,-36.47 26.54,-41.34 v -0.5 c 0,-3.4 -2.55,-6.13 -6.88,-8.4 -17.75,-9.07 -21.11,-12.41 -27.690001,-10.6 -34.16,9.43 -94.4699998,4.61 -98.97999981,31.83 z" fill="#380d09"/>
  <path d="m 0.19772919,145.5 c 1.85000001,2.59 17.44999981,7.36 40.71999981,12.38 26,4.74 48.61,20.19 67.440001,14.75 12.73,-3.68 25.39,-34.58 25.39,-39.46 v -0.48 c 0,-3.39 -2.55,-6.13 -6.88,-8.39 -13.54,-7.2 -31.430001,-15.13 -38.000001,-13.32 -34.22,9.41 -79.9599998,11.48 -88.66999981,34.52 z" fill="#380d09"/>
  <path d="m 0.00772919,93.23 v 0.48 0 a 3.73,3.73 0 0 1 0,-0.48 z" fill="#555555"/>
  <path d="M 108.30773,12.87 C 76.847729,21.96 26.937729,27.09 0.04772919,27.09 v 0 51.35 a 0.8,0.8 0 0 0 0.19,0.48 c 18.34999981,0 74.99999981,-6 109.18000081,-15.4 a 129,129 0 0 0 17.49,-5.81 c 4.18,-1.88 6.88,-3.86 6.88,-5.92 V 0 c -0.04,4.88 -12.75,9.2 -25.48,12.87 z" fill="#de3423"/>
  <path d="m 108.30773,79.46 c -18.830001,5.43 -44.240001,9.47 -67.390001,11.83 -15.54,1.59 -30.06,2.42 -40.86999981,2.42 v 0 51.31 a 0.8,0.8 0 0 0 0.19,0.48 c 18.34999981,0 74.99999981,-6 109.18000081,-15.39 a 130.38,130.38 0 0 0 17.49,-5.81 c 4.18,-1.89 6.88,-3.86 6.88,-5.92 V 66.59 c -0.04,4.87 -12.75,9.19 -25.48,12.87 z" fill="#de3423"/>
  <path d="m 108.30773,146.09 c -18.830001,5.43 -44.240001,9.46 -67.390001,11.83 -15.56,1.59 -30.1,2.42 -40.90999981,2.42 v 51.75 c 18.15999981,0 75.09999981,-5.95 109.37000081,-15.39 12.63,-3.48 24.37,-7.44 24.37,-11.74 v -51.79 c 0,4.92 -12.71,9.2 -25.44,12.92 z" fill="#de3423"/>
</svg>
