<?xml version="1.0" encoding="UTF-8" standalone="no"?>
<svg
   fill="#000000"
   width="20"
   height="19.825224"
   viewBox="0 0 2.5 2.478153"
   enable-background="new 0 0 100 100"
   xml:space="preserve"
   version="1.1"
   id="svg4"
   xmlns="http://www.w3.org/2000/svg"
   xmlns:svg="http://www.w3.org/2000/svg">
<path
   d="M 0.08433239,2.144955 H 2.4167104 c 0.04582,0 0.0833,0.03749 0.0833,0.0833 v 0.166598 c 0,0.04582 -0.03749,0.0833 -0.0833,0.0833 H 0.08433239 c -0.04582,0 -0.0833,-0.03748 -0.0833,-0.0833 V 2.228255 c 0,-0.04582 0.03749,-0.0833 0.0833,-0.0833 z"
   id="path1"
   style="stroke-width:0.0416496" />
<path
   d="M 0.08433239,1.395262 H 2.4167104 c 0.04582,0 0.0833,0.03749 0.0833,0.0833 V 1.64516 c 0,0.04581 -0.03749,0.0833 -0.0833,0.0833 H 0.08433239 c -0.04582,0 -0.0833,-0.03748 -0.0833,-0.0833 V 1.478562 c 0,-0.04582 0.03749,-0.0833 0.0833,-0.0833 z"
   id="path2"
   style="stroke-width:0.0416496" />
<path
   d="m 1.5670584,0.645569 h 0.849652 c 0.04582,0 0.0833,0.03749 0.0833,0.0833 v 0.166599 c 0,0.04581 -0.03749,0.0833 -0.0833,0.0833 h -0.849652 c -0.04581,0 -0.0833,-0.03749 -0.0833,-0.0833 V 0.728869 c 0,-0.04581 0.03749,-0.0833 0.0833,-0.0833 z"
   id="path3"
   style="stroke-width:0.0416496" />
<path
   d="M 1.1505624,1.003756 0.75489139,0.029155 C 0.74656139,0.012495 0.72990139,0 0.70907639,0 h -0.299877 c -0.01666,0 -0.03748,0.01249 -0.04165,0.02915 l -0.366517,0.974601 c -0.0042,0.01666 0.0042,0.04165 0.02915,0.04165 h 0.191588 c 0.01666,0 0.03749,-0.01666 0.04165,-0.03332 l 0.07497,-0.208248 h 0.462311 l 0.0833,0.208248 c 0.0042,0.01666 0.02499,0.03332 0.04165,0.03332 H 1.1172394 c 0.02499,0 0.03749,-0.02082 0.03332,-0.04165 z M 0.42585939,0.55394 0.54664239,0.245733 h 0.02499 l 0.133279,0.308207 z"
   id="path4"
   style="stroke-width:0.0416496" />
</svg>
