<?xml version="1.0" encoding="UTF-8" standalone="no"?>
<svg width="256px" height="256px" viewBox="0 0 256 256" enable-background="new 0 0 256 256" xml:space="preserve" xmlns="http://www.w3.org/2000/svg"><defs/>
<g>
	<g transform="matrix(1.6033432,0,0,1.6033429,-80.235006,-69.55622)">
		<path fill="#001935" d="m 168.08,170.918 c -2.969,1.416 -8.647,2.648 -12.881,2.754 -12.783,0.342 -15.264,-8.979 -15.367,-15.736 v -49.705 h 32.065 V 84.055 H 139.943 V 43.382 c 0,0 -23.008,0 -23.383,0 -0.385,0 -1.057,0.337 -1.152,1.192 -1.368,12.448 -7.192,34.296 -31.416,43.032 v 20.624 h 16.16 v 52.167 c 0,17.863 13.176,43.24 47.959,42.641 11.736,-0.201 24.77,-5.113 27.648,-9.354 l -7.679,-22.766"/>
	</g>
</g>
</svg>
